<?xml version="1.0" encoding="UTF-8"?>
<svg id="logo" xmlns="http://www.w3.org/2000/svg" xmlns:xlink="http://www.w3.org/1999/xlink" version="1.1" viewBox="0 0 1910.3100586 1609.7600098">
  <!-- Generator: Adobe Illustrator 30.2.1, SVG Export Plug-In . SVG Version: 2.1.1 Build 1)  -->
  <defs>
    <style>
      .st0 {
        fill: none;
        stroke: url(#radial-gradient);
        stroke-width: 33px;
      }

      .st0, .st1 {
        stroke-miterlimit: 10;
      }

      .st1 {
        fill: #6c813d;
        stroke: #6c813d;
      }
    </style>
    <radialGradient id="radial-gradient" cx="955.1549911" cy="-255.1199951" fx="955.1549911" fy="-255.1199951" r="1200.5149727" gradientTransform="translate(0 1060)" gradientUnits="userSpaceOnUse">
      <stop offset="0" stop-color="#6c813d"/>
      <stop offset=".62" stop-color="#cad2ba" stop-opacity=".36"/>
      <stop offset="1" stop-color="#fff" stop-opacity="0"/>
    </radialGradient>
  </defs>
  <g id="logo-2">
    <path class="st1" d="M893.4200439,721.625l-19.4000244,19.4000244c-2.0300293,2.0300293-5.2299805,2.0300293-7.2600098,0l-140.3800049-140.3800049c-2.0300293-2.0300293-2.0300293-5.2299805,0-7.2600098l17.25-17.25c2.0300293-2.0300293,5.2299805-2.0300293,7.2600098,0l23.2299805,23.2299805c3.2199707,3.2199707,8.75.9199829,8.75-3.6099854v-53.3200073c0-2.8099976,2.289978-5.1400146,5.1400146-5.1400146h24.4099731c2.8099976,0,5.1400146,2.289978,5.1400146,5.1400146v98.2399902c0,1.3699951.5300293,2.6799927,1.4899902,3.6099854l32.3400269,32.3400269c3.2199707,3.2199707,8.75.9199829,8.75-3.6099854v-174.3099976c0-2.8099976,2.289978-5.1400146,5.1400146-5.1400146h24.4099731c2.8099976,0,5.0999756,2.2900085,5.1400146,5.1000061l.1300049,219.309967c0,1.3699951-.5300293,2.6799927-1.4899902,3.6500244h-.0900269.0400391ZM976.3000488,700.9450073l153.9399414-153.9400024c2.0300293-2.0300293,2.0300293-5.2299805,0-7.2600098l-17.25-17.25c-2.0300293-2.0300293-5.2299805-2.0300293-7.2600098,0l-124.5,124.5c-3.2199707,3.2199707-8.75.9199829-8.75-3.6099854v-48.3099976c0-1.3699951.5300293-2.6799927,1.4899902-3.6099854l69.4699707-69.4700317c2.0300293-2.0300293,2.0300293-5.2299805,0-7.2600098l-17.25-17.25c-2.0300293-2.0299988-5.2299805-2.0299988-7.2600098,0l-37.7000122,37.7000122c-3.2199707,3.2199707-8.75.9199829-8.75-3.6099854v-32.9100037c0-2.8099976-2.289978-5.1400146-5.1400146-5.1400146h-24.4099731c-2.8099976,0-5.1400146,2.2900085-5.1400146,5.1400146v198.6300354c0,2.8099976,2.289978,5.1400146,5.1400146,5.1400146h29.7399902c1.3699951,0,2.6799927-.5300293,3.6099854-1.4899902l.039978-.039978-.0300293.0200195v.0200195h.0100098l.0001221-.0001221h.000061ZM851.2300415,783.7050171l-154.0200195-154.0200195c-2.0300293-2.0300293-5.2299805-2.0300293-7.2600098,0l-17.25,17.25c-2.0300293,2.0300293-2.0300293,5.2299805,0,7.2600098l124.5899658,124.5900269c3.2199707,3.2199707.9199829,8.75-3.6099854,8.75h-48.3099976c-1.3699951,0-2.6799927-.5300293-3.6099854-1.4899902l-69.4700317-69.4699707c-2.0300293-2.0300293-5.2299805-2.0300293-7.2600098,0l-17.25,17.25c-2.0300293,2.0300293-2.0300293,5.2299805,0,7.2600098l37.7000122,37.7000122c3.2199707,3.2199707.9199829,8.75-3.6099854,8.75h-32.9099731c-2.8099976,0-5.1400146,2.289978-5.1400146,5.1400146v24.4099731c0,2.8099976,2.289978,5.1400146,5.1400146,5.1400146h198.6300049c2.8099976,0,5.1400146-2.289978,5.1400146-5.1400146v-29.7399902c0-1.3699951-.5300293-2.6799927-1.4899902-3.6099854l-.039978-.039978v.0200195h.0300293l-.000061-.0101318ZM1038.1601562,743.3649902c.9599609.960022,2.2900391,1.4899902,3.6500244,1.4899902l219.5400391-.3499756c2.8100586,0,5.1400146-2.289978,5.1400146-5.1400146v-24.4099731c0-2.8099976-2.2900391-5.1400146-5.1400146-5.1400146h-174.2700195c-4.5699463,0-6.8599854-5.5499878-3.6099854-8.75l32.3399658-32.3400269c.9599609-.960022,2.2399902-1.4899902,3.6099854-1.4899902h98.2399902c2.8100586,0,5.1400146-2.289978,5.1400146-5.1400146v-24.4099731c0-2.8099976-2.2900391-5.1400146-5.1400146-5.1400146h-53.3199463c-4.5699463,0-6.8599854-5.5499878-3.6099854-8.75l23.2299805-23.2299805c2.0300293-2.0300293,2.0300293-5.2299805,0-7.2600098l-17.25-17.25c-2.0300293-2.0300293-5.2299805-2.0300293-7.2600098,0l-140.6500244,140.6499634c-2.0300293,2.0300293-2.0300293,5.2299805,0,7.2600098l19.4000244,19.4000244-.0400391.039978v-.039978ZM872.1700439,866.375c-.960022-.960022-2.289978-1.4899902-3.6500244-1.4899902l-219.539978.3499756c-2.8099976,0-5.1400146,2.289978-5.1400146,5.1400146v24.4099731c0,2.8099976,2.289978,5.1400146,5.1400146,5.1400146h174.2700195c4.5700073,0,6.8599854,5.5499878,3.6099854,8.75l-32.3400269,32.3400269c-.960022.960022-2.2399902,1.4899902-3.6099854,1.4899902h-98.2399902c-2.8099976,0-5.1400146,2.289978-5.1400146,5.1400146v24.4099731c0,2.8099976,2.289978,5.1400146,5.1400146,5.1400146h53.3200073c4.5700073,0,6.8599854,5.5499878,3.6099854,8.75l-23.2299805,23.2299805c-2.0300293,2.0300293-2.0300293,5.2299805,0,7.2600098l17.25,17.249939c2.0300293,2.0300293,5.2299805,2.0300293,7.2600098,0l140.6500244-140.6500244c2.0300293-2.0300293,2.0300293-5.2299805,0-7.2600098l-19.4000244-19.4000244.039978-.039978v.0401001ZM1261.3500977,787.5349731h-199.1300049c-2.8100586,0-5.1400146,2.289978-5.1400146,5.1400146v29.25c0,1.3699951.5300293,2.6799927,1.4899902,3.6500244l154.5500488,154.5499878c2.0300293,2.0300293,5.2299805,2.0300293,7.2600098,0l17.25-17.25c2.0300293-2.0300293,2.0300293-5.2299805,0-7.2600098l-124.6400146-124.6400146c-3.2199707-3.2199707-.9200439-8.75,3.6099854-8.75h48.3100586c1.3699951,0,2.6800537.5300293,3.6099854,1.4899902l69.4699707,69.4699707c2.0300293,2.0300293,5.2299805,2.0300293,7.2600098,0l17.25-17.25c2.0300293-2.0300293,2.0300293-5.2299805,0-7.2600098l-37.6999512-37.7000122c-3.2199707-3.2199707-.9200439-8.75,3.6099854-8.75h32.8599854c2.8100586,0,5.1400146-2.289978,5.1400146-5.1400146v-24.4099731c0-2.8099976-2.2900391-5.1400146-5.1400146-5.1400146h.0899658-.0100098v.000061ZM934.460083,908.2949829l-154.289978,154.289978c-2.0300293,2.0300293-2.0300293,5.2299805,0,7.2600098l17.25,17.25c2.0300293,2.0300293,5.2299805,2.0300293,7.2600098,0l124.3800049-124.3800049c3.2199707-3.2199707,8.75-.9199829,8.75,3.6099854v48.3099976c0,1.3699951-.5300293,2.6799927-1.4899902,3.6099854l-69.4699707,69.4700317c-2.0300293,2.0300293-2.0300293,5.2299805,0,7.2600098l17.25,17.25c2.0300293,2.0300293,5.2299805,2.0300293,7.2600098,0l37.7000122-37.6999512c3.2199707-3.2199707,8.75-.9200439,8.75,3.6099854v32.8599854c0,2.8100586,2.289978,5.1400146,5.1400146,5.1400146h24.4099731c2.8099976,0,5.1400146-2.2900391,5.1400146-5.1400146v-199.1300049c0-2.8099976-2.289978-5.1400146-5.1400146-5.1400146h-29.25c-1.3699951,0-2.6799927.5300293-3.6099854,1.4899902l-.039978.0900269h0l-.0001221-.0100098ZM1016.4300537,887.625c-.960022.960022-1.4899902,2.289978-1.4899902,3.6500244l.5700073,219.8000488c0,2.8100586,2.289978,5.1400146,5.1400146,5.1400146h24.4099731c2.8100586,0,5.1400146-2.2900391,5.1400146-5.1400146v-174.2700195c0-4.5700073,5.5500488-6.8599854,8.75-3.6099854l32.3399658,32.3400269c.9599609.960022,1.4899902,2.2399902,1.4899902,3.6099854v98.2400513c0,2.8100586,2.2900391,5.1400146,5.1400146,5.1400146h24.4100342c2.8100586,0,5.1400146-2.2900391,5.1400146-5.1400146v-53.3200073c0-4.5700073,5.5500488-6.8599854,8.75-3.6099854l23.2299805,23.2300415c2.0300293,2.0300293,5.2299805,2.0300293,7.2600098,0l17.25-17.25c2.0300293-2.0300293,2.0300293-5.2299805,0-7.2600098l-140.8800049-140.8800049c-2.0300293-2.0300293-5.2299805-2.0300293-7.2600098,0l-19.3599854,19.3599854-.0900269-.039978h.0599976l-.000061.0098267h.000061Z"/>
  </g>
  <path class="st0" d="M720.3300781,488.2349854l-73.789978,73.789978c-7.7000122,7.7000122-19.9099731,7.7000122-27.6099854,0L85.0300674,28.1149807c-7.6999969-7.6999989-7.6999969-19.9099998,0-27.6100006l65.5899887-65.5899944c7.6999969-7.6999969,19.9100037-7.6999969,27.6100006,0l88.3400116,88.3399963c12.2099915,12.2099991,33.2999878,3.5100002,33.2999878-13.7200003v-202.7899866c0-10.7100067,8.7000122-19.5800018,19.5799866-19.5800018h92.8600159c10.7099915,0,19.5799866,8.6999969,19.5799866,19.5800018V180.3749847c0,5.1900024,2.0100098,10.2100067,5.6900024,13.7200012l122.980011,122.9800262c12.210022,12.2099915,33.2999878,3.5100098,33.2999878-13.7200012V-359.5549927c0-10.7099915,8.7000122-19.5799866,19.5800171-19.5799866h92.8599854c10.710022,0,19.4099731,8.7000122,19.5800171,19.4100037l.5,834.0700073c0,5.1900024-2.0100098,10.2099915-5.6900024,13.8900146h-.3599854v-.000061ZM1620.9901123-175.8450165c7.6999512-7.6999969,7.6999512-19.9100037,0-27.6100006l-65.5899658-65.5899658c-7.6999512-7.7000122-19.9100342-7.7000122-27.6099854,0l-473.5,473.5c-12.2099609,12.2100067-33.2999878,3.5099945-33.2999878-13.7200012V7.0349798c0-5.1900001,2.0100098-10.21,5.6900024-13.7200003l264.1900635-264.1900101c7.6999512-7.7000122,7.6999512-19.9100037,0-27.6099854l-65.5899658-65.5899963c-7.6999512-7.7000122-19.9100342-7.7000122-27.6099854,0l-143.3900146,143.3899994c-12.2099609,12.2100067-33.2999878,3.5099945-33.2999878-13.7200012v-125.1500092c0-10.7099915-8.7000122-19.5799866-19.5800171-19.5799866h-92.8599854c-10.710022,0-19.5800171,8.7000122-19.5800171,19.5799866V395.875c0,10.7099915,8.7000122,19.5799866,19.5800171,19.5799866h113.1099854c5.1899414,0,10.2099609-2.0100098,13.7199707-5.6900024l.1700439-.1700134L1620.9901123-175.8450165ZM-25.899931,138.5449829c-7.6999989-7.6999969-19.9099979-7.6999969-27.6100025,0l-65.5899963,65.5899963c-7.6999969,7.6999969-7.6999969,19.9100037,0,27.6100006l473.8399811,473.8399811c12.2099915,12.210022,3.5100098,33.2999878-13.7200012,33.2999878h-183.7100067c-5.1900024,0-10.2100067-2.0100098-13.7200012-5.6900024L-120.5999298,468.9949951c-7.6999969-7.7000122-19.9099884-7.7000122-27.6100006,0l-65.5899963,65.5899658c-7.6999969,7.7000122-7.6999969,19.9099731,0,27.6099854l143.3899994,143.3900146c12.2099991,12.210022,3.5100021,33.2999878-13.7200012,33.2999878h-125.1500092c-10.7100067,0-19.5800018,8.7000122-19.5800018,19.5800171v92.8599854c0,10.710022,8.6999969,19.5800171,19.5800018,19.5800171h755.4300842c10.710022,0,19.5800171-8.7000122,19.5800171-19.5800171v-113.1099854c0-5.1900024-5.8599854-13.8899536-5.8599854-13.8899536L-25.899931,138.5449829ZM2119.5898438,575.2349854c10.7099609,0,19.5800781-8.7000122,19.5800781-19.5800171v-92.8599854c0-10.7099915-8.6999512-19.5799866-19.5800781-19.5799866h-662.7299805c-17.4000244,0-26.0999756-21.0799866-13.7199707-33.2999878l122.9799805-122.980011c3.6800537-3.6799927,8.5300293-5.6900024,13.7199707-5.6900024h373.6099854c10.7099609,0,19.5799561-8.7000122,19.5799561-19.5799866v-92.8600006c0-10.7100067-8.6999512-19.5800018-19.5799561-19.5800018h-202.7900391c-17.4000244,0-26.0999756-21.0800018-13.7199707-33.3000031l88.3399658-88.3399963c7.6999512-7.7000008,7.6999512-19.9099998,0-27.6100006l-65.5899658-65.5899963c-7.6999512-7.6999969-19.9100342-7.6999969-27.6099854,0l-534.9099121,534.9099731c-7.6999512,7.7000122-7.6999512,19.9100037,0,27.6099854,0,0,82.3299561,79.6699829,87.5200195,79.6699829l834.8999023-1.3399658ZM625.6300659,1033.0050049l-834.9000244,1.3399658c-10.7100067,0-19.5800018,8.6999512-19.5800018,19.5799561v92.8599854c0,10.7099609,8.6999969,19.5799561,19.5800018,19.5799561H453.4600525c17.3999939,0,26.1000061,21.0799561,13.7200012,33.3000488l-122.980011,122.9799805c-3.6799927,3.6800537-8.5299988,5.6899414-13.7200012,5.6899414H-43.1299324c-10.7099991,0-19.579998,8.6999512-19.579998,19.5799561v92.8599854c0,10.7099609,8.7000008,19.5799561,19.5800018,19.5799561h202.7900085c17.3999939,0,26.1000061,21.0799561,13.7200012,33.3000488l-88.3399963,88.3399658c-7.6999969,7.6999512-7.6999969,19.9100342,0,27.6099854l65.5899963,65.5899658c7.6999969,7.6999512,19.9100037,7.6999512,27.6100006,0l534.9099426-534.9099121c7.7000122-7.6999512,7.7000122-19.9100342,0-27.6099854l-73.789978-73.7900391s-8.539978-5.8800049-13.7299805-5.8800049v.0002441ZM2119.5900879,738.875h-757.2700195c-10.7099609,0-19.5799561,8.7000122-19.5799561,19.5800171v111.2600098c0,5.1900024,2.0100098,10.210022,5.6899414,13.8900146l587.7800293,587.7800903c7.6999512,7.6999512,19.9100342,7.6999512,27.6099854,0l65.5899658-65.5899658c7.6999512-7.6999512,7.6999512-19.9100342,0-27.6099854l-474-474c-12.2099609-12.210022-3.5100098-33.2999878,13.7199707-33.2999878h183.7099609c5.1899414,0,10.2099609,2.0100098,13.7199707,5.6900024l264.1900635,264.1900635c7.6999512,7.6999512,19.9099121,7.6999512,27.6101074,0l65.5900879-65.5899658c7.6999512-7.6999512,7.6999512-19.9100342,0-27.6099854l-143.3900146-143.3900146c-12.2099609-12.210022-3.5100098-33.2999878,13.7199707-33.2999878h124.9801025c10.7099609,0,19.5800781-8.7000122,19.5800781-19.5800171v-92.8599854c0-10.710022-8.6999512-19.5800171-19.5800781-19.5800171h.3300781v.0200195h0l-.0002441-.0003052ZM876.4300537,1198.1550293l-586.7700195,586.7700195c-7.7000122,7.6999512-7.7000122,19.9100342,0,27.6099854l65.5899963,65.5899658c7.7000122,7.6999512,19.9100037,7.6999512,27.6100159,0l473-473c12.210022-12.2099609,33.2999878-3.5100098,33.2999878,13.7199707v183.7099609c0,5.1899414-2.0100098,10.2099609-5.6900024,13.7199707l-264.1900024,264.1900635c-7.7000122,7.6999512-7.7000122,19.9100342,0,27.6099854l65.5900269,65.5899658c7.7000122,7.6999512,19.9099731,7.6999512,27.6099854,0l143.3900146-143.3900146c12.210022-12.2099609,33.2999878-3.5100098,33.2999878,13.7199707v124.9799805c0,10.7099609,8.7000122,19.5799561,19.5800171,19.5799561h92.8599854c10.710022,0,19.5800171-8.6999512,19.5800171-19.5799561v-757.2700195c0-10.7099609-8.7000122-19.5799561-19.5800171-19.5799561h-111.2600098c-5.1900024,0-13.9199829,6.0301514-13.9199829,6.0301514ZM1182.4501953,1133.4050293l2.1800537,835.9100342c0,10.7099609,8.6999512,19.5799561,19.5799561,19.5799561h92.8599854c10.7099609,0,19.5799561-8.6999512,19.5799561-19.5799561v-662.7299805c0-17.4000244,21.0799561-26.0999756,33.3000488-13.7199707l122.9799805,122.9799805c3.6800537,3.6800537,5.6899414,8.5300293,5.6899414,13.7199707v373.6099854c0,10.7099609,8.6999512,19.5799561,19.5799561,19.5799561h92.8599854c10.7099609,0,19.5799561-8.6999512,19.5799561-19.5799561v-202.7900391c0-17.4000244,21.0799561-26.0999756,33.3000488-13.7199707l88.3399658,88.3399658c7.6999512,7.6999512,19.9100342,7.6999512,27.6099854,0l65.5899658-65.5899658c7.6999512-7.6999512,7.6999512-19.9100342,0-27.6099854l-535.7399902-535.7399902c-7.6999512-7.6999512-19.9100342-7.6999512-27.6099854,0l-73.9899902,73.4499512s-5.6898193,8.6999512-5.6898193,13.8900146Z"/>
</svg>