<?xml version="1.0" encoding="utf-8"?>
<!-- Generator: Adobe Illustrator 27.5.0, SVG Export Plug-In . SVG Version: 6.00 Build 0)  -->
<svg version="1.1" id="Layer_1" xmlns="http://www.w3.org/2000/svg" xmlns:xlink="http://www.w3.org/1999/xlink" x="0px" y="0px" viewBox="0 0 142.3 142.3" style="enable-background:new 0 0 142.3 142.3;" xml:space="preserve">
<style type="text/css">
	.st0{fill:#FFFFFF;}
	.st1{fill:#FFFFFF;stroke:#FFFFFF;stroke-width:1.5;stroke-miterlimit:10;}
</style>
<path class="st0" d="M110.3,142.3h32v-33C135.6,123.5,124.2,135.2,110.3,142.3z"/>
<path class="st0" d="M6.7,78.9c0-39.3,31.9-71.2,71.2-71.2c28.4,0,53,16.7,64.4,40.8V0H0v142.3h45.6C22.5,130.5,6.7,106.6,6.7,78.9z
	"/>
<g>
	<path class="st1" d="M66.9,115.6c-3.3,1.2-7.1,1.8-11.6,1.8c-13.8,0-22.6-6.5-26.5-19.5l5.2-1.8c2.9,10.7,10.1,16.1,21.4,16.1
		c6.5,0,11.5-1.6,15.2-4.8c3.8-3.3,5.7-8.1,5.7-14.3c0-6-2.2-10.9-6.7-14.8c-1.2-1.1-3-2.3-5.4-3.7c-2.4-1.3-5.5-2.8-9.3-4.5
		c-7.1-3.2-12-6-14.6-8.3c-4.4-3.8-6.5-8.8-6.5-15s2.2-11.2,6.7-15c4.4-3.9,9.7-5.8,16.1-5.8c10.6,0,18,3.9,22.4,11.8L74,39.9
		c-1.7-2.8-3.7-4.8-6-6.2C65,31.9,61.2,31,56.5,31c-5,0-9.1,1.4-12.3,4.2c-3.5,2.9-5.3,6.8-5.3,11.6c0,4.3,1.8,8,5.5,11.2
		c2.1,1.7,6.3,4,12.6,6.8c3.9,1.8,7.3,3.5,10.2,5.2s5.2,3.5,6.9,5.2c4.9,4.8,7.3,10.7,7.3,17.9C81.4,104.4,76.6,111.9,66.9,115.6
		L66.9,115.6L66.9,115.6z"/>
	<path class="st1" d="M133.9,110.2c-5.2,5.2-11.6,7.8-19.1,7.8c-8.6,0-15.8-3.5-21.4-10.6v34.1h-5.2V65.2h5.2V75
		c5.4-7.1,12.5-10.6,21.4-10.6c7.6,0,13.9,2.6,19,7.7c5.2,5.2,7.8,11.6,7.8,19.1S139,105.1,133.9,110.2L133.9,110.2L133.9,110.2z
		M130.1,75.9c-4.3-4.3-9.4-6.4-15.3-6.4s-11.2,2.1-15.3,6.3S93,85.2,93,91.2s2.1,11.1,6.4,15.3c4.3,4.3,9.4,6.4,15.3,6.4
		s11.2-2.1,15.3-6.3s6.4-9.4,6.4-15.5S134.4,80.2,130.1,75.9z"/>
</g>
</svg>
