<?xml version="1.0" encoding="UTF-8"?>
<svg id="Layer_2" xmlns="http://www.w3.org/2000/svg" version="1.1" viewBox="0 0 409.9 141.8">
  <!-- Generator: Adobe Illustrator 30.2.1, SVG Export Plug-In . SVG Version: 2.1.1 Build 1)  -->
  <defs>
    <style>
      .st0 {
        fill: #cabaaa;
      }

      .st1 {
        fill: #598137;
      }
    </style>
  </defs>
  <path class="st1" d="M56.73,51.84l-4.41,4.41c-.46.46-1.19.46-1.65,0l-31.91-31.91c-.46-.46-.46-1.19,0-1.65l3.92-3.92c.46-.46,1.19-.46,1.65,0l5.28,5.28c.73.73,1.99.21,1.99-.82v-12.12c0-.64.52-1.17,1.17-1.17h5.55c.64,0,1.17.52,1.17,1.17v22.33c0,.31.12.61.34.82l7.35,7.35c.73.73,1.99.21,1.99-.82V1.17c0-.64.52-1.17,1.17-1.17h5.55c.64,0,1.16.52,1.17,1.16l.03,49.85c0,.31-.12.61-.34.83h-.02,0ZM75.57,47.14L110.56,12.15c.46-.46.46-1.19,0-1.65l-3.92-3.92c-.46-.46-1.19-.46-1.65,0l-28.3,28.3c-.73.73-1.99.21-1.99-.82v-10.98c0-.31.12-.61.34-.82l15.79-15.79c.46-.46.46-1.19,0-1.65l-3.92-3.92c-.46-.46-1.19-.46-1.65,0l-8.57,8.57c-.73.73-1.99.21-1.99-.82V1.17c0-.64-.52-1.17-1.17-1.17h-5.55c-.64,0-1.17.52-1.17,1.17v45.15c0,.64.52,1.17,1.17,1.17h6.76c.31,0,.61-.12.82-.34h0ZM47.14,65.95L12.13,30.94c-.46-.46-1.19-.46-1.65,0l-3.92,3.92c-.46.46-.46,1.19,0,1.65l28.32,28.32c.73.73.21,1.99-.82,1.99h-10.98c-.31,0-.61-.12-.82-.34l-15.79-15.79c-.46-.46-1.19-.46-1.65,0l-3.92,3.92c-.46.46-.46,1.19,0,1.65l8.57,8.57c.73.73.21,1.99-.82,1.99H1.17c-.64,0-1.17.52-1.17,1.17v5.55c0,.64.52,1.17,1.17,1.17h45.15c.64,0,1.17-.52,1.17-1.17v-6.76c0-.31-.12-.61-.34-.82h0ZM89.63,56.78c.22.22.52.34.83.34l49.9-.08c.64,0,1.17-.52,1.17-1.17v-5.55c0-.64-.52-1.17-1.17-1.17h-39.61c-1.04,0-1.56-1.26-.82-1.99l7.35-7.35c.22-.22.51-.34.82-.34h22.33c.64,0,1.17-.52,1.17-1.17v-5.55c0-.64-.52-1.17-1.17-1.17h-12.12c-1.04,0-1.56-1.26-.82-1.99l5.28-5.28c.46-.46.46-1.19,0-1.65l-3.92-3.92c-.46-.46-1.19-.46-1.65,0l-31.97,31.97c-.46.46-.46,1.19,0,1.65l4.41,4.41h0ZM51.9,84.74c-.22-.22-.52-.34-.83-.34l-49.9.08C.53,84.48,0,85,0,85.65v5.55c0,.64.52,1.17,1.17,1.17h39.61c1.04,0,1.56,1.26.82,1.99l-7.35,7.35c-.22.22-.51.34-.82.34H11.1c-.64,0-1.17.52-1.17,1.17v5.55c0,.64.52,1.17,1.17,1.17h12.12c1.04,0,1.56,1.26.82,1.99l-5.28,5.28c-.46.46-.46,1.19,0,1.65l3.92,3.92c.46.46,1.19.46,1.65,0l31.97-31.97c.46-.46.46-1.19,0-1.65l-4.41-4.41h.01ZM140.36,66.82h-45.26c-.64,0-1.17.52-1.17,1.17v6.65c0,.31.12.61.34.83l35.13,35.13c.46.46,1.19.46,1.65,0l3.92-3.92c.46-.46.46-1.19,0-1.65l-28.33-28.33c-.73-.73-.21-1.99.82-1.99h10.98c.31,0,.61.12.82.34l15.79,15.79c.46.46,1.19.46,1.65,0l3.92-3.92c.46-.46.46-1.19,0-1.65l-8.57-8.57c-.73-.73-.21-1.99.82-1.99h7.47c.64,0,1.17-.52,1.17-1.17v-5.55c0-.64-.52-1.17-1.17-1.17,0,0,.02,0,.02,0ZM66.06,94.27l-35.07,35.07c-.46.46-.46,1.19,0,1.65l3.92,3.92c.46.46,1.19.46,1.65,0l28.27-28.27c.73-.73,1.99-.21,1.99.82v10.98c0,.31-.12.61-.34.82l-15.79,15.79c-.46.46-.46,1.19,0,1.65l3.92,3.92c.46.46,1.19.46,1.65,0l8.57-8.57c.73-.73,1.99-.21,1.99.82v7.47c0,.64.52,1.17,1.17,1.17h5.55c.64,0,1.17-.52,1.17-1.17v-45.26c0-.64-.52-1.17-1.17-1.17h-6.65c-.31,0-.61.12-.82.34v.02h-.01ZM84.69,89.57c-.22.22-.34.52-.34.83l.13,49.96c0,.64.52,1.17,1.17,1.17h5.55c.64,0,1.17-.52,1.17-1.17v-39.61c0-1.04,1.26-1.56,1.99-.82l7.35,7.35c.22.22.34.51.34.82v22.33c0,.64.52,1.17,1.17,1.17h5.55c.64,0,1.17-.52,1.17-1.17v-12.12c0-1.04,1.26-1.56,1.99-.82l5.28,5.28c.46.46,1.19.46,1.65,0l3.92-3.92c.46-.46.46-1.19,0-1.65l-32.02-32.02c-.46-.46-1.19-.46-1.65,0l-4.4,4.4h-.02,0Z"/>
  <g>
    <path class="st0" d="M199.43,68.3c-2.62-2.18-6.01-3.27-10.17-3.27h-11.33c-2.05,0-3.64-.45-4.76-1.36-1.13-.92-1.68-2.32-1.68-4.21v-7.53c0-1.76.56-3.04,1.68-3.86,1.13-.8,2.54-1.21,4.27-1.21h9.53c1.86,0,3.36.44,4.52,1.32,1.17.88,1.74,2.23,1.74,4.06v.68c0,.65.34.97.99.97h6.46c.99,0,1.49-.48,1.49-1.47v-1.85c0-4.11-1.2-7.15-3.58-9.15-2.38-1.98-5.55-2.97-9.53-2.97h-10.42c-2.25,0-4.37.23-6.36.68s-3.71,1.21-5.16,2.29c-1.46,1.08-2.6,2.47-3.42,4.17-.83,1.7-1.24,3.77-1.24,6.26v8.21c0,4.88,1.37,8.42,4.12,10.6,2.73,2.18,6.49,3.27,11.27,3.27h10.22c1.72,0,3.2.41,4.41,1.23,1.23.82,1.84,2.14,1.84,3.95v7.24c0,2.01-.61,3.41-1.84,4.15-1.21.74-2.86,1.12-4.91,1.12h-9.63c-1.86,0-3.36-.44-4.52-1.32-1.15-.88-1.74-2.23-1.74-4.06v-.68c0-.65-.32-.97-.99-.97h-6.45c-.99,0-1.49.48-1.49,1.45v1.86c0,4.04,1.21,7.07,3.62,9.09,2.41,2.01,5.57,3.03,9.49,3.03h10.61c2.51,0,4.81-.2,6.86-.59,2.06-.38,3.83-1.11,5.32-2.15,1.48-1.03,2.65-2.45,3.46-4.24.83-1.8,1.24-4.09,1.24-6.89v-8.21c0-4.24-1.3-7.45-3.92-9.63h0Z"/>
    <path class="st0" d="M275.7,76.75c3.77,0,6.69-.94,8.74-2.83s3.08-4.62,3.08-8.21v-1.67c0-2.8-.44-5.11-1.3-6.94-.86-1.82-2.06-3.26-3.62-4.3-1.55-1.03-3.41-1.77-5.55-2.2-2.15-.42-4.49-.64-7-.64h-2.48c-2.84,0-5.38.26-7.59.79-2.22.52-4.09,1.41-5.61,2.68s-2.66,2.94-3.42,4.98c-.77,2.06-1.15,4.62-1.15,7.68v16.71c0,3.27.35,5.98,1.05,8.17.69,2.18,1.77,3.91,3.23,5.18,1.45,1.27,3.3,2.17,5.55,2.7,2.25.52,4.97.77,8.14.77h18.27c.99,0,1.49-.48,1.49-1.47v-5.18c0-.97-.5-1.45-1.49-1.45h-17.28c-3.32,0-5.73-.62-7.25-1.86s-2.28-3.51-2.28-6.85v-6.06h16.47ZM259.22,66.3c0-3.14.73-5.29,2.18-6.45,1.46-1.18,3.71-1.76,6.75-1.76h3.67c2.51,0,4.44.42,5.76,1.27,1.33.85,1.99,2.44,1.99,4.79v1.56c0,3-1.89,4.5-5.66,4.5h-13.28c-.78,0-1.41-.65-1.41-1.46v-2.45Z"/>
    <path class="st0" d="M303.52,60.57c2.08-1.65,5.33-2.48,9.78-2.48h10.32c.99,0,1.49-.5,1.49-1.47v-5.18c0-.98-.5-1.47-1.49-1.47h-12.2c-7.15,0-12.35,1.58-15.6,4.74-3.24,3.17-4.87,8.39-4.87,15.69v8.5c0,7.1,1.51,12.33,4.52,15.69,3.01,3.36,8.13,5.03,15.35,5.03h12.8c.99,0,1.49-.48,1.49-1.47v-5.18c0-.97-.5-1.45-1.49-1.45h-10.92c-4.5,0-7.67-.89-9.53-2.7-1.86-1.79-2.78-4.97-2.78-9.53v-9.29c0-4.62,1.04-7.77,3.13-9.44h0Z"/>
    <path class="st0" d="M337.56,49.97h-6.46c-.99,0-1.49.48-1.49,1.47v46.72c0,.98.5,1.47,1.49,1.47h6.46c.99,0,1.49-.48,1.49-1.47v-46.72c0-.98-.5-1.47-1.49-1.47Z"/>
    <path class="st0" d="M369.54,30.43h-6.3c-2.65,0-4.87.35-6.65,1.08-1.78.71-3.22,1.74-4.27,3.08-1.07,1.33-1.81,2.97-2.24,4.88-.44,1.92-.64,4.09-.64,6.51v4h-5.07c-.99,0-1.48.48-1.48,1.47v5.18c0,.97.48,1.47,1.48,1.47h5.07v40.07c0,.98.5,1.47,1.49,1.47h6.45c.99,0,1.49-.48,1.49-1.47v-40.07h8c1.05,0,1.58-.5,1.58-1.47v-5.18c0-.98-.53-1.47-1.58-1.47h-8v-4.5c0-2.27.39-4.01,1.2-5.23.79-1.21,2.44-1.8,4.95-1.8h4.52c.99,0,1.49-.5,1.49-1.47v-5.09c0-.97-.5-1.45-1.49-1.45h0Z"/>
    <path class="st0" d="M408.39,49.97h-6.46c-.99,0-1.49.49-1.49,1.47v38.21c0,.98-.76,1.77-1.71,1.77h-12.29c-1.71,0-3.08-.49-4.11-1.47-1.04-.97-1.55-2.3-1.55-4v-34.51c0-.98-.5-1.47-1.49-1.47h-6.45c-.99,0-1.49.49-1.49,1.47v37.63c0,3.53,1.04,6.17,3.13,7.92,2.09,1.76,4.81,2.64,8.19,2.64h16.23c.93,0,1.68.78,1.68,1.74v5.8c0,1.08-.85,1.96-1.89,1.96h-25.48c-.91.02-1.64.78-1.64,1.73v6.44c0,.88.69,1.6,1.55,1.6h25.45c3.38,0,6.11-.89,8.2-2.65,2.08-1.76,3.13-4.39,3.13-7.91v-56.9c0-.98-.5-1.47-1.49-1.47h-.02Z"/>
    <path class="st0" d="M241.92,52.6c-2.08-1.76-4.81-2.64-8.19-2.64h-10.52c-1.91,0-3.46.26-4.62.79-1.15.52-2.06,1.3-2.73,2.35l-2.6-2.76c-.22-.24-.53-.37-.85-.37h-3.19c-.99,0-1.49.48-1.49,1.47v66.08c0,.98.5,1.47,1.49,1.47h6.46c.99,0,1.49-.48,1.49-1.47v-17.89h13.59c1.93,0,3.76-.24,5.51-.73,1.75-.48,3.27-1.23,4.57-2.2,1.29-.98,2.31-2.24,3.07-3.77.76-1.53,1.14-3.33,1.14-5.42v-26.98c0-3.51-1.04-6.17-3.13-7.92h0ZM235.62,85.84c0,1.58-.48,2.89-1.43,3.97-.96,1.08-2.6,1.61-4.93,1.61h-11.89c-.11,0-.21-.1-.21-.22v-28.81c0-1.38.41-2.41,1.24-3.14.82-.71,1.93-1.08,3.32-1.08h7.35c.79,0,1.56.09,2.32.24.76.17,1.48.44,2.13.83,1.4.98,2.09,2.61,2.09,4.89v21.71h0Z"/>
    <ellipse class="st0" cx="334.33" cy="40.13" rx="5.57" ry="5.77"/>
  </g>
</svg>