<svg xmlns="http://www.w3.org/2000/svg" viewBox="0 0 1000 1000" fill="#07A"><g transform="translate(0.000000,511.000000) scale(0.100000,-0.100000)"><path d="M1652.8,4975.8c-375-80.5-699.3-260-980-538.3c-207-209.3-342.8-411.8-437.1-657.9C95.4,3416.1,100,3586.3,100,110.3S95.4-3195.5,235.7-3559c232.3-605,819-1085.8,1463.1-1205.4c188.6-34.5,6413.7-34.5,6602.3,0c361.2,66.7,784.4,292.1,1039.8,554.4c257.7,266.9,450.9,625.7,526.8,984.6c25.3,119.6,32.2,510.7,32.2,1985.3V593.4h-483.1h-483.1v-1718.5c0-996.1-9.2-1778.3-23-1856.5c-69-421-398-749.9-819-818.9c-181.7-29.9-6001.9-29.9-6183.7,0c-414.1,66.7-740.8,386.5-819,802.9c-29.9,163.3-32.2,6011.1,0,6199.7c69,421,398,750,819,819c78.2,13.8,860.4,23,1856.5,23h1718.4v483.1v483.1l-1845-2.3C2207.3,5008,1758.7,4998.8,1652.8,4975.8z" /><path d="M6472.3,4527.2v-483.1h878.8h881.1L6971.5,2783.4L5713.2,1525.1l340.5-340.5c186.3-186.3,349.7-338.2,361.2-338.2c13.8,0,584.3,561.3,1269.9,1246.9l1249.2,1249.1v-881.1v-878.8h483.1H9900v1713.8v1713.8H8186.2H6472.3V4527.2z" /></g></svg>