<?xml version="1.0" standalone="no"?>
<!DOCTYPE svg PUBLIC "-//W3C//DTD SVG 20010904//EN"
 "http://www.w3.org/TR/2001/REC-SVG-20010904/DTD/svg10.dtd">
<svg version="1.0" xmlns="http://www.w3.org/2000/svg"
 width="700.000000pt" height="700.000000pt" viewBox="0 0 700.000000 700.000000"
 preserveAspectRatio="xMidYMid meet">
<metadata>
Created by potrace 1.14, written by Peter Selinger 2001-2017
</metadata>
<g transform="translate(0.000000,700.000000) scale(0.100000,-0.100000)"
fill="#000000" stroke="none">
<path d="M0 3500 l0 -3500 1123 0 1122 0 -125 71 c-169 97 -242 144 -395 259
-570 428 -997 1026 -1222 1710 -71 219 -127 487 -155 740 -18 169 -15 555 6
730 104 890 526 1686 1201 2267 821 708 1918 988 3000 767 597 -122 1207 -437
1648 -853 312 -293 520 -564 724 -941 l73 -135 0 1193 0 1192 -3500 0 -3500 0
0 -3500z"/>
<path d="M2538 5745 c-441 -83 -781 -376 -886 -763 -23 -88 -26 -114 -26 -282
0 -168 3 -194 26 -282 61 -223 186 -403 386 -550 128 -95 373 -226 687 -368
401 -181 590 -293 721 -426 162 -163 248 -362 261 -599 10 -190 -20 -351 -94
-505 -39 -80 -59 -108 -137 -186 -79 -79 -105 -98 -196 -143 -128 -63 -256
-96 -428 -112 -312 -27 -600 42 -797 194 -140 107 -268 304 -330 510 -14 48
-32 87 -38 87 -11 0 -307 -100 -316 -106 -9 -7 64 -206 109 -299 70 -145 142
-247 250 -356 261 -265 603 -382 1069 -366 262 9 448 50 624 138 323 161 501
387 584 739 34 148 43 430 18 580 -65 393 -277 682 -683 933 -130 81 -301 169
-562 290 -449 208 -606 311 -712 464 -137 200 -153 462 -40 693 53 110 185
239 308 303 50 25 124 55 165 66 209 58 495 44 699 -34 141 -54 288 -174 377
-307 24 -38 47 -68 50 -68 10 0 288 122 297 131 12 11 -59 128 -132 221 -156
196 -380 327 -667 390 -122 26 -474 34 -587 13z"/>
<path d="M5470 3863 c-307 -40 -547 -155 -767 -367 l-73 -69 0 201 0 202 -165
0 -165 0 0 -1915 0 -1915 165 0 165 0 0 801 0 801 73 -69 c253 -236 506 -349
835 -372 255 -19 494 25 706 127 379 184 642 519 733 934 26 119 26 457 0 578
-56 262 -163 463 -350 657 -153 158 -287 250 -472 322 -155 61 -270 82 -475
86 -96 2 -191 1 -210 -2z m350 -334 c309 -50 605 -272 750 -564 60 -122 89
-226 99 -353 25 -331 -76 -609 -301 -832 -243 -242 -575 -342 -918 -279 -197
37 -376 134 -531 288 -132 132 -213 266 -266 438 -26 83 -27 99 -27 283 0 169
3 205 22 273 104 373 426 675 790 741 93 17 293 20 382 5z"/>
<path d="M6927 1492 c-173 -327 -394 -620 -658 -877 -222 -215 -485 -411 -744
-554 l-110 -61 793 0 792 0 0 810 c0 446 -1 810 -2 810 -2 0 -33 -58 -71 -128z"/>
</g>
</svg>
