<?xml version="1.0" encoding="utf-8"?>
<!-- Generator: Adobe Illustrator 30.2.1, SVG Export Plug-In . SVG Version: 9.03 Build 0)  -->
<svg version="1.0" id="Layer_1" xmlns="http://www.w3.org/2000/svg" xmlns:xlink="http://www.w3.org/1999/xlink" x="0px" y="0px"
	 viewBox="0 0 700 700" style="enable-background:new 0 0 700 700;" xml:space="preserve">
<path d="M280.66,256.5l-21.79,21.79c-2.27,2.27-5.88,2.27-8.15,0L93.06,120.62c-2.27-2.27-2.27-5.88,0-8.15l19.37-19.37
	c2.27-2.27,5.88-2.27,8.15,0l26.09,26.09c3.61,3.61,9.83,1.04,9.83-4.05V55.26c0-3.16,2.57-5.78,5.78-5.78h27.42
	c3.16,0,5.78,2.57,5.78,5.78v110.33c0,1.53,0.59,3.01,1.68,4.05l36.31,36.31c3.61,3.61,9.83,1.04,9.83-4.05V6.15
	c0-3.16,2.57-5.78,5.78-5.78h27.42c3.16,0,5.73,2.57,5.78,5.73l0.15,246.3c0,1.53-0.59,3.01-1.68,4.1H280.66z M373.74,233.27
	L546.62,60.4c2.27-2.27,2.27-5.88,0-8.15l-19.37-19.37c-2.27-2.27-5.88-2.27-8.15,0L379.27,172.7c-3.61,3.61-9.83,1.04-9.83-4.05
	V114.4c0-1.53,0.59-3.01,1.68-4.05l78.01-78.01c2.27-2.27,2.27-5.88,0-8.15L429.77,4.81c-2.27-2.27-5.88-2.27-8.15,0l-42.34,42.34
	c-3.61,3.61-9.83,1.04-9.83-4.05V6.15c0-3.16-2.57-5.78-5.78-5.78h-27.42c-3.16,0-5.78,2.57-5.78,5.78v223.08
	c0,3.16,2.57,5.78,5.78,5.78h33.4c1.53,0,3.01-0.59,4.05-1.68L373.74,233.27z M233.27,326.21L60.3,153.23
	c-2.27-2.27-5.88-2.27-8.15,0L32.78,172.6c-2.27,2.27-2.27,5.88,0,8.15L172.7,320.68c3.61,3.61,1.04,9.83-4.05,9.83H114.4
	c-1.53,0-3.01-0.59-4.05-1.68l-78.01-78.01c-2.27-2.27-5.88-2.27-8.15,0L4.81,270.18c-2.27,2.27-2.27,5.88,0,8.15l42.34,42.34
	c3.61,3.61,1.04,9.83-4.05,9.83H6.15c-3.16,0-5.78,2.57-5.78,5.78v27.42c0,3.16,2.57,5.78,5.78,5.78h223.08
	c3.16,0,5.78-2.57,5.78-5.78v-33.4c0-1.53-0.59-3.01-1.68-4.05L233.27,326.21z M443.21,280.9c1.09,1.09,2.57,1.68,4.1,1.68
	l246.54-0.4c3.16,0,5.78-2.57,5.78-5.78v-27.42c0-3.16-2.57-5.78-5.78-5.78h-195.7c-5.14,0-7.71-6.23-4.05-9.83l36.31-36.31
	c1.09-1.09,2.52-1.68,4.05-1.68h110.33c3.16,0,5.78-2.57,5.78-5.78v-27.42c0-3.16-2.57-5.78-5.78-5.78h-59.88
	c-5.14,0-7.71-6.23-4.05-9.83l26.09-26.09c2.27-2.27,2.27-5.88,0-8.15l-19.37-19.37c-2.27-2.27-5.88-2.27-8.15,0L421.47,250.91
	c-2.27,2.27-2.27,5.88,0,8.15l21.79,21.79L443.21,280.9z M256.79,419.05c-1.09-1.09-2.57-1.68-4.1-1.68l-246.54,0.4
	c-3.16,0-5.78,2.57-5.78,5.78v27.42c0,3.16,2.57,5.78,5.78,5.78h195.7c5.14,0,7.71,6.23,4.05,9.83l-36.31,36.31
	c-1.09,1.09-2.52,1.68-4.05,1.68H55.21c-3.16,0-5.78,2.57-5.78,5.78v27.42c0,3.16,2.57,5.78,5.78,5.78h59.88
	c5.14,0,7.71,6.23,4.05,9.83l-26.09,26.09c-2.27,2.27-2.27,5.88,0,8.15l19.37,19.37c2.27,2.27,5.88,2.27,8.15,0l157.96-157.96
	c2.27-2.27,2.27-5.88,0-8.15l-21.79-21.79L256.79,419.05z M693.85,330.51H470.23c-3.16,0-5.78,2.57-5.78,5.78v32.86
	c0,1.53,0.59,3.01,1.68,4.1L639.7,546.82c2.27,2.27,5.88,2.27,8.15,0l19.37-19.37c2.27-2.27,2.27-5.88,0-8.15L527.25,379.32
	c-3.61-3.61-1.04-9.83,4.05-9.83h54.25c1.53,0,3.01,0.59,4.05,1.68l78.01,78.01c2.27,2.27,5.88,2.27,8.15,0l19.37-19.37
	c2.27-2.27,2.27-5.88,0-8.15l-42.34-42.34c-3.61-3.61-1.04-9.83,4.05-9.83h36.91c3.16,0,5.78-2.57,5.78-5.78v-27.42
	c0-3.16-2.57-5.78-5.78-5.78L693.85,330.51z M326.75,466.13L153.48,639.41c-2.27,2.27-2.27,5.88,0,8.15l19.37,19.37
	c2.27,2.27,5.88,2.27,8.15,0l139.68-139.68c3.61-3.61,9.83-1.04,9.83,4.05v54.25c0,1.53-0.59,3.01-1.68,4.05l-78.01,78.01
	c-2.27,2.27-2.27,5.88,0,8.15l19.37,19.37c2.27,2.27,5.88,2.27,8.15,0l42.34-42.34c3.61-3.61,9.83-1.04,9.83,4.05v36.91
	c0,3.16,2.57,5.78,5.78,5.78h27.42c3.16,0,5.78-2.57,5.78-5.78V470.13c0-3.16-2.57-5.78-5.78-5.78h-32.86
	c-1.53,0-3.01,0.59-4.05,1.68L326.75,466.13z M418.8,442.91c-1.09,1.09-1.68,2.57-1.68,4.1l0.64,246.84c0,3.16,2.57,5.78,5.78,5.78
	h27.42c3.16,0,5.78-2.57,5.78-5.78v-195.7c0-5.14,6.23-7.71,9.83-4.05l36.31,36.31c1.09,1.09,1.68,2.52,1.68,4.05v110.33
	c0,3.16,2.57,5.78,5.78,5.78h27.42c3.16,0,5.78-2.57,5.78-5.78v-59.88c0-5.14,6.23-7.71,9.83-4.05l26.09,26.09
	c2.27,2.27,5.88,2.27,8.15,0l19.37-19.37c2.27-2.27,2.27-5.88,0-8.15l-158.2-158.2c-2.27-2.27-5.88-2.27-8.15,0l-21.74,21.74
	L418.8,442.91z"/>
</svg>
