<svg xmlns="http://www.w3.org/2000/svg" viewBox="0 0 142.34 142.32"><defs><style>g{fill:#f79244;stroke:#f79244;stroke-miterlimit:10;stroke-width:1.5px}</style>
<linearGradient id="b" x1="126.05" y1="18.32" x2="142.54" y2="1.83" gradientTransform="translate(0 143.9) scale(1 -1)" gradientUnits="userSpaceOnUse"><stop offset="0" stop-color="#f4763d"/><stop offset="1" stop-color="#f26337"/></linearGradient><linearGradient id="c" x1="0" y1="143.9" x2="95.35" y2="48.54" gradientTransform="translate(0 143.9) scale(1 -1)" gradientUnits="userSpaceOnUse"><stop offset="0" stop-color="#fdbe57"/><stop offset="1" stop-color="#f4763d"/></linearGradient></defs><path fill="url(#b)" d="M110.26,142.3h32.04v-32.98c-6.73,14.21-18.05,25.84-32.04,32.98Z"/><path fill="url(#c)" d="M6.69,78.87C6.69,39.54,38.58,7.65,77.91,7.65c28.44,0,52.97,16.67,64.38,40.76V0H0V142.31H45.56C22.5,130.53,6.69,106.56,6.69,78.87Z"/><g><path class="g" d="M66.93,115.57c-3.27,1.17-7.13,1.76-11.58,1.76-13.76,0-22.61-6.5-26.55-19.51l5.16-1.76c2.94,10.74,10.07,16.11,21.4,16.11,6.46,0,11.54-1.59,15.23-4.78,3.78-3.27,5.66-8.05,5.66-14.35,0-5.96-2.22-10.91-6.67-14.85-1.18-1.09-2.98-2.31-5.41-3.65-2.43-1.34-5.54-2.85-9.31-4.53-7.13-3.19-12-5.96-14.6-8.31-4.36-3.78-6.54-8.77-6.54-14.98s2.22-11.2,6.67-14.98c4.36-3.86,9.73-5.79,16.11-5.79,10.57,0,18.04,3.94,22.4,11.83l-4.91,2.14c-1.68-2.77-3.69-4.82-6.04-6.17-2.94-1.84-6.75-2.77-11.45-2.77-4.95,0-9.06,1.38-12.33,4.15-3.52,2.94-5.29,6.8-5.29,11.58,0,4.28,1.84,8.01,5.54,11.2,2.1,1.68,6.29,3.95,12.58,6.8,3.94,1.76,7.34,3.5,10.19,5.22s5.16,3.46,6.92,5.22c4.86,4.78,7.3,10.74,7.3,17.87,0,11.41-4.83,18.92-14.47,22.53v.02Z"/><path class="g" d="M133.92,110.23c-5.2,5.2-11.58,7.8-19.13,7.8-8.64,0-15.77-3.52-21.4-10.57v34.11h-5.16V65.17h5.16v9.82c5.37-7.05,12.5-10.57,21.4-10.57,7.55,0,13.88,2.56,19,7.68,5.2,5.2,7.8,11.58,7.8,19.13s-2.56,13.89-7.68,19h0Zm-3.78-34.36c-4.28-4.28-9.4-6.42-15.35-6.42s-11.16,2.1-15.35,6.29-6.42,9.44-6.42,15.48,2.14,11.08,6.42,15.35c4.28,4.28,9.4,6.42,15.35,6.42s11.16-2.1,15.35-6.29,6.42-9.44,6.42-15.48-2.14-11.07-6.42-15.35Z"/></g></svg>