<svg xmlns="http://www.w3.org/2000/svg" viewBox="0 0 142.2 142.4"><path d="M0 .1h142.3v142.3H0z" fill="#fff"/><linearGradient id="A" gradientUnits="userSpaceOnUse" x1="126.045" y1="125.625" x2="142.535" y2="142.115"><stop offset="0" stop-color="#f4763d"/><stop offset="1" stop-color="#f26337"/></linearGradient><path d="M110.3 142.4h32v-33c-6.7 14.2-18.1 25.8-32 33z" fill="url(#A)"/><linearGradient id="B" gradientUnits="userSpaceOnUse" x1="-.005" y1=".055" x2="95.345" y2="95.405"><stop offset="0" stop-color="#fdbe57"/><stop offset="1" stop-color="#f4763d"/></linearGradient><path d="M6.7 78.9c0-39.3 31.9-71.2 71.2-71.2 28.4 0 53 16.7 64.4 40.8V.1H0v142.3h45.6C22.5 130.6 6.7 106.6 6.7 78.9z" fill="url(#B)"/><path d="M66.9 115.6c-3.3 1.2-7.1 1.8-11.6 1.8-13.8 0-22.6-6.5-26.5-19.5l5.2-1.8c2.9 10.7 10.1 16.1 21.4 16.1 6.5 0 11.5-1.6 15.2-4.8 3.8-3.3 5.7-8.1 5.7-14.3 0-6-2.2-10.9-6.7-14.8-1.2-1.1-3-2.3-5.4-3.7-2.4-1.3-5.5-2.8-9.3-4.5-7.1-3.2-12-6-14.6-8.3-4.4-3.8-6.5-8.8-6.5-15s2.2-11.2 6.7-15c4.4-3.9 9.7-5.8 16.1-5.8 10.6 0 18 3.9 22.4 11.8L74 40c-1.7-2.8-3.7-4.8-6-6.2C65 32 61.2 31 56.5 31c-5 0-9.1 1.4-12.3 4.2-3.5 2.9-5.3 6.8-5.3 11.6 0 4.3 1.8 8 5.5 11.2 2.1 1.7 6.3 4 12.6 6.8 3.9 1.8 7.3 3.5 10.2 5.2s5.2 3.5 6.9 5.2c4.9 4.8 7.3 10.7 7.3 17.9 0 11.4-4.8 18.9-14.5 22.5h0zm67-5.3c-5.2 5.2-11.6 7.8-19.1 7.8-8.6 0-15.8-3.5-21.4-10.6v34.1h-5.2V65.2h5.2V75c5.4-7.1 12.5-10.6 21.4-10.6 7.6 0 13.9 2.6 19 7.7 5.2 5.2 7.8 11.6 7.8 19.1s-2.6 14-7.7 19.1h0zm-3.8-34.4c-4.3-4.3-9.4-6.4-15.3-6.4s-11.2 2.1-15.3 6.3c-4.3 4.3-6.4 9.4-6.4 15.5s2.1 11.1 6.4 15.3c4.3 4.3 9.4 6.4 15.3 6.4s11.2-2.1 15.3-6.3 6.4-9.4 6.4-15.5-2.1-11-6.4-15.3" fill="#f79244" stroke="#f79244" stroke-width="1.5" stroke-miterlimit="10"/></svg>