<?xml version="1.0" encoding="UTF-8"?>
<svg id="Layer_1" xmlns="http://www.w3.org/2000/svg" version="1.1" viewBox="0 0 142.34 142.32">
  <!-- Generator: Adobe Illustrator 30.2.1, SVG Export Plug-In . SVG Version: 2.1.1 Build 1)  -->
  <defs>
    <style>
      .st0 {
        fill: #687d3b;
      }
    </style>
  </defs>
  <path class="st0" d="M57.13,52.24l-4.41,4.41c-.46.46-1.19.46-1.65,0l-31.91-31.91c-.46-.46-.46-1.19,0-1.65l3.92-3.92c.46-.46,1.19-.46,1.65,0l5.28,5.28c.73.73,1.99.21,1.99-.82v-12.12c0-.64.52-1.17,1.17-1.17h5.55c.64,0,1.17.52,1.17,1.17v22.33c0,.31.12.61.34.82l7.35,7.35c.73.73,1.99.21,1.99-.82V1.57c0-.64.52-1.17,1.17-1.17h5.55c.64,0,1.16.52,1.17,1.16l.03,49.85c0,.31-.12.61-.34.83h-.02,0ZM75.97,47.54L110.96,12.55c.46-.46.46-1.19,0-1.65l-3.92-3.92c-.46-.46-1.19-.46-1.65,0l-28.3,28.3c-.73.73-1.99.21-1.99-.82v-10.98c0-.31.12-.61.34-.82l15.79-15.79c.46-.46.46-1.19,0-1.65l-3.92-3.92c-.46-.46-1.19-.46-1.65,0l-8.57,8.57c-.73.73-1.99.21-1.99-.82V1.57c0-.64-.52-1.17-1.17-1.17h-5.55c-.64,0-1.17.52-1.17,1.17v45.15c0,.64.52,1.17,1.17,1.17h6.76c.31,0,.61-.12.82-.34h.01ZM47.54,66.35L12.53,31.34c-.46-.46-1.19-.46-1.65,0l-3.92,3.92c-.46.46-.46,1.19,0,1.65l28.32,28.32c.73.73.21,1.99-.82,1.99h-10.98c-.31,0-.61-.12-.82-.34l-15.79-15.79c-.46-.46-1.19-.46-1.65,0l-3.92,3.92c-.46.46-.46,1.19,0,1.65l8.57,8.57c.73.73.21,1.99-.82,1.99H1.57c-.64,0-1.17.52-1.17,1.17v5.55c0,.64.52,1.17,1.17,1.17h45.15c.64,0,1.17-.52,1.17-1.17v-6.76c0-.31-.12-.61-.34-.82h0ZM90.03,57.18c.22.22.52.34.83.34l49.9-.08c.64,0,1.17-.52,1.17-1.17v-5.55c0-.64-.52-1.17-1.17-1.17h-39.61c-1.04,0-1.56-1.26-.82-1.99l7.35-7.35c.22-.22.51-.34.82-.34h22.33c.64,0,1.17-.52,1.17-1.17v-5.55c0-.64-.52-1.17-1.17-1.17h-12.12c-1.04,0-1.56-1.26-.82-1.99l5.28-5.28c.46-.46.46-1.19,0-1.65l-3.92-3.92c-.46-.46-1.19-.46-1.65,0l-31.97,31.97c-.46.46-.46,1.19,0,1.65l4.41,4.41h0ZM52.31,85.14c-.22-.22-.52-.34-.83-.34l-49.9.08c-.64,0-1.17.52-1.17,1.17v5.55c0,.64.52,1.17,1.17,1.17h39.61c1.04,0,1.56,1.26.82,1.99l-7.35,7.35c-.22.22-.51.34-.82.34H11.51c-.64,0-1.17.52-1.17,1.17v5.55c0,.64.52,1.17,1.17,1.17h12.12c1.04,0,1.56,1.26.82,1.99l-5.28,5.28c-.46.46-.46,1.19,0,1.65l3.92,3.92c.46.46,1.19.46,1.65,0l31.97-31.97c.46-.46.46-1.19,0-1.65l-4.41-4.41h.01ZM140.77,67.22h-45.26c-.64,0-1.17.52-1.17,1.17v6.65c0,.31.12.61.34.83l35.13,35.13c.46.46,1.19.46,1.65,0l3.92-3.92c.46-.46.46-1.19,0-1.65l-28.33-28.33c-.73-.73-.21-1.99.82-1.99h10.98c.31,0,.61.12.82.34l15.79,15.79c.46.46,1.19.46,1.65,0l3.92-3.92c.46-.46.46-1.19,0-1.65l-8.57-8.57c-.73-.73-.21-1.99.82-1.99h7.47c.64,0,1.17-.52,1.17-1.17v-5.55c0-.64-.52-1.17-1.17-1.17h.02ZM66.46,94.67l-35.07,35.07c-.46.46-.46,1.19,0,1.65l3.92,3.92c.46.46,1.19.46,1.65,0l28.27-28.27c.73-.73,1.99-.21,1.99.82v10.98c0,.31-.12.61-.34.82l-15.79,15.79c-.46.46-.46,1.19,0,1.65l3.92,3.92c.46.46,1.19.46,1.65,0l8.57-8.57c.73-.73,1.99-.21,1.99.82v7.47c0,.64.52,1.17,1.17,1.17h5.55c.64,0,1.17-.52,1.17-1.17v-45.26c0-.64-.52-1.17-1.17-1.17h-6.65c-.31,0-.61.12-.82.34v.02h0ZM85.1,89.97c-.22.22-.34.52-.34.83l.13,49.96c0,.64.52,1.17,1.17,1.17h5.55c.64,0,1.17-.52,1.17-1.17v-39.61c0-1.04,1.26-1.56,1.99-.82l7.35,7.35c.22.22.34.51.34.82v22.33c0,.64.52,1.17,1.17,1.17h5.55c.64,0,1.17-.52,1.17-1.17v-12.12c0-1.04,1.26-1.56,1.99-.82l5.28,5.28c.46.46,1.19.46,1.65,0l3.92-3.92c.46-.46.46-1.19,0-1.65l-32.02-32.02c-.46-.46-1.19-.46-1.65,0l-4.4,4.4h-.02,0Z"/>
</svg>