<svg xmlns="http://www.w3.org/2000/svg" xmlns:xlink="http://www.w3.org/1999/xlink" viewBox="0 0 213.6 36" xmlns:v="https://vecta.io/nano"><g enable-background="new" fill="#1c75bc" stroke="#1c75bc" stroke-width=".25" stroke-miterlimit="10"><path d="M2.1 22.8c1 .6 2.4 1.1 3.9 1.1 2.2 0 3.5-1.2 3.5-2.9 0-1.6-.9-2.5-3.2-3.4-2.8-1-4.5-2.4-4.5-4.8 0-2.6 2.2-4.6 5.5-4.6 1.7 0 3 .4 3.8.8l-.6 1.8c-.6-.3-1.7-.8-3.2-.8-2.3 0-3.2 1.4-3.2 2.5 0 1.6 1 2.4 3.4 3.3 2.9 1.1 4.3 2.5 4.3 5 0 2.6-1.9 4.9-5.9 4.9-1.6 0-3.4-.5-4.3-1.1l.5-1.8zm12.6-5.5l-.1-4h2l.1 2.1h.1c.9-1.5 2.3-2.4 4.3-2.4 2.9 0 5.2 2.5 5.2 6.2 0 4.4-2.7 6.5-5.5 6.5-1.6 0-3-.7-3.8-1.9h-.1v6.6h-2.2V17.3zm2.2 3.2c0 .3.1.6.1.9.4 1.6 1.8 2.6 3.3 2.6 2.3 0 3.7-1.9 3.7-4.7 0-2.4-1.3-4.5-3.6-4.5-1.5 0-2.9 1.1-3.3 2.7-.1.3-.2.6-.2.9v2.1z"/><use xlink:href="#B"/><path d="M50.4 25c-.6.3-1.9.7-3.5.7-3.7 0-6.1-2.5-6.1-6.2 0-3.8 2.6-6.5 6.5-6.5 1.3 0 2.5.3 3.1.6l-.5 1.7c-.5-.3-1.4-.6-2.6-.6-2.8 0-4.3 2.1-4.3 4.6 0 2.8 1.8 4.6 4.2 4.6 1.3 0 2.1-.3 2.7-.6l.5 1.7zm5-15.1c0 .8-.5 1.4-1.4 1.4-.8 0-1.3-.6-1.3-1.4s.6-1.4 1.4-1.4 1.3.6 1.3 1.4zM53 25.5V13.3h2.2v12.2H53zm6.1 0V15h-1.7v-1.7h1.7v-.6c0-1.7.4-3.3 1.4-4.3.8-.8 1.9-1.1 3-1.1.8 0 1.5.2 1.9.4l-.3 1.7c-.3-.2-.8-.3-1.4-.3-1.9 0-2.4 1.7-2.4 3.5v.7h2.9V15h-2.9v10.5h-2.2zM67 13.3l2.7 7.2.8 2.5h.1l.8-2.5 2.4-7.2h2.3L72.7 22c-1.6 4.2-2.7 6.3-4.2 7.6-1.1 1-2.2 1.3-2.7 1.4l-.6-1.9c.6-.2 1.3-.5 1.9-1.1.6-.5 1.4-1.3 1.9-2.5.1-.2.2-.4.2-.5s-.1-.3-.2-.6l-4.5-11.2H67v.1zm16.5 12.2v-17h2.4l5.4 8.6c1.3 2 2.2 3.8 3 5.5l-.3-7V8.5h2.1v17h-2.2l-5.4-8.6c-1.2-1.9-2.3-3.8-3.2-5.7h-.1l.2 7v7.3h-1.9z"/><use xlink:href="#B" x="70.9"/><path d="M115.3 9.8v3.5h3.2V15h-3.2v6.6c0 1.5.4 2.4 1.7 2.4.6 0 1-.1 1.3-.2l.1 1.7c-.4.2-1.1.3-2 .3-1 0-1.9-.3-2.4-.9-.6-.7-.9-1.7-.9-3.2V15h-1.9v-1.7h1.9v-2.9l2.2-.6zm6.7 3.5l1.6 6.2c.4 1.4.7 2.6.9 3.9h.1l1.1-3.9 2-6.2h1.9l1.9 6.1c.5 1.5.8 2.7 1.1 4h.1c.2-1.2.5-2.5.9-4l1.7-6.1h2.2l-3.9 12.2h-2l-1.9-5.8-1.1-4c-.3 1.5-.7 2.7-1.1 4l-2 5.8h-2l-3.7-12.2h2.2zm28.5 6c0 4.5-3.1 6.5-6.1 6.5-3.3 0-5.8-2.4-5.8-6.3 0-4.1 2.7-6.5 6-6.5 3.5 0 5.9 2.6 5.9 6.3zm-9.7.1c0 2.7 1.5 4.7 3.7 4.7 2.1 0 3.7-2 3.7-4.7 0-2.1-1-4.7-3.7-4.7-2.6 0-3.7 2.4-3.7 4.7zm12.5-2.3l-.1-3.8h1.9l.1 2.4h.1c.6-1.6 1.9-2.7 3.4-2.7.3 0 .4 0 .6.1v2.1c-.2 0-.5-.1-.8-.1-1.6 0-2.7 1.2-3 2.8 0 .3-.1.7-.1 1v6.5h-2.2v-8.3h.1zm10.5 1.8c.4-.4.8-1 1.1-1.4l3.6-4.2h2.7l-4.7 5 5.4 7.2h-2.7l-4.2-5.8-1.1 1.3v4.6h-2.2v-18h2.2v11.3h-.1z"/></g><path fill="#fff" d="M197.1.8L212.4 8v15.7l-14.9 11.6-11.8-9.1-3.4-17.8z"/><path fill="#1c75bc" d="M212.3 8l-6.8 4.2-14.6-8.4L197 .3z"/><path d="M191.3 20c.5.3 1.1.5 1.9.5 1.1 0 1.7-.6 1.7-1.4s-.4-1.2-1.5-1.6c-1.3-.5-2.1-1.1-2.1-2.3 0-1.3 1-2.2 2.6-2.2.8 0 1.4.2 1.8.4l-.3.8c-.3-.1-.8-.4-1.5-.4-1.1 0-1.5.7-1.5 1.2 0 .8.5 1.1 1.6 1.6 1.4.5 2.1 1.2 2.1 2.4s-.9 2.3-2.8 2.3c-.8 0-1.6-.2-2.1-.5l.1-.8zm6 1.3v-8.1h1.1l2.6 4.1c.6.9 1.1 1.8 1.4 2.6-.1-1.1-.1-2.1-.1-3.3v-3.4h1v8.1h-1.1l-2.6-4.1c-.6-.9-1.1-1.8-1.5-2.7.1 1 .1 2 .1 3.3v3.4l-.9.1z" enable-background="new" fill="#1c75bc" stroke="#1c75bc" stroke-width=".125" stroke-miterlimit="10"/><path fill="#48a1d9" d="M182.9 8.1L197 .3l6.6 3.3-14.2 8.5z"/><path fill="#289245" d="M212.5 8.4l-6.6 4-.1 17.1 6.7-4.7z"/><path fill="#f89938" d="M188.9 12.5l-.1 16.8-6.4-3.8-.1-17.1z"/><path fill="#1f5e30" d="M198.8 26.3l13.7-8.3.1 6.9-14.5 9.9z"/><path fill="#e34e25" d="M196.2 26.1l-13.9-8.3.1 7.7 14.4 9.3z"/><defs ><path id="B" d="M30.3 19.8c.1 3 2 4.2 4.2 4.2 1.6 0 2.5-.3 3.4-.6l.4 1.6c-.8.4-2.1.8-4.1.8-3.8 0-6-2.5-6-6.1s2.2-6.6 5.7-6.6c4 0 5 3.5 5 5.7 0 .5 0 .8-.1 1h-8.5zm6.5-1.6c0-1.4-.6-3.6-3.1-3.6-2.2 0-3.2 2.1-3.4 3.6h6.5z"/></defs></svg>