<?xml version="1.0" encoding="utf-8" ?>
<!-- Generator: Adobe Illustrator 25.4.1, SVG Export Plug-In . SVG Version: 6.00 Build 0)  -->
<svg
  version="1.1"
  id="Layer_1"
  xmlns="http://www.w3.org/2000/svg"
  xmlns:xlink="http://www.w3.org/1999/xlink"
  x="0px"
  y="0px"
  viewBox="0 0 36 36"
  style="enable-background:new 0 0 36 36;"
  xml:space="preserve"
>
<style type="text/css">
.st0 {
  fill: #ffffff;
}
.st1 {
  fill: #1c75bc;
}
.st2 {
  fill: #1c75bc;
  stroke: #1c75bc;
  stroke-width: 0.25;
  stroke-miterlimit: 10;
}
.st3 {
  fill: #48a1d9;
}
.st4 {
  fill: #289245;
}
.st5 {
  fill: #f7941d;
}
.st6 {
  fill: #1f5e30;
}
.st7 {
  fill: #e34e25;
}
  </style>
<polygon
    class="st0"
    points="17.6,1.4 32.2,9.5 32,25.6 17.8,35.2 3.5,25.3 3.9,9.1 "
  />
<polygon class="st1" points="32.3,8.9 25.7,13 11.6,4.9 17.6,1.5 " />
<g>
	<path
      class="st2"
      d="M12,20.8c0.4,0.3,1.1,0.5,1.8,0.5c1,0,1.6-0.5,1.6-1.3c0-0.7-0.4-1.1-1.5-1.5c-1.3-0.4-2-1.1-2-2.2
		c0-1.2,1-2.1,2.5-2.1c0.8,0,1.4,0.2,1.7,0.4l-0.3,0.8c-0.3-0.1-0.8-0.4-1.5-0.4c-1.1,0-1.5,0.6-1.5,1.2c0,0.7,0.5,1.1,1.5,1.5
		c1.3,0.5,2,1.1,2,2.3c0,1.2-0.9,2.2-2.7,2.2c-0.7,0-1.6-0.2-2-0.5L12,20.8z"
    />
	<path
      class="st2"
      d="M17.8,22v-7.7h1.1l2.5,3.9c0.6,0.9,1,1.7,1.4,2.5l0,0c-0.1-1-0.1-2-0.1-3.2v-3.2h0.9V22h-1l-2.5-3.9
		c-0.5-0.9-1.1-1.7-1.4-2.6l0,0c0.1,1,0.1,1.9,0.1,3.2V22H17.8z"
    />
</g>
<polygon class="st3" points="4,9 17.6,1.5 23.9,4.7 10.3,12.9 " />
<polygon class="st4" points="32.4,9.3 26.1,13.2 26,29.7 32.4,25.1 " />
<polygon class="st5" points="9.8,13.2 9.7,29.5 3.5,25.7 3.4,9.3 " />
<polygon class="st6" points="19.2,26.5 32.4,18.5 32.5,25.9 18.6,34.7 " />
<polygon class="st7" points="16.7,26.4 3.4,18.4 3.6,25.9 17.4,34.7 " />
</svg>
