<svg version="1.1" id="Layer_1" xmlns="http://www.w3.org/2000/svg"
	 viewBox="0 0 213.6 36" style="enable-background:new 0 0 213.6 36;" xml:space="preserve">
<style type="text/css">
	.st0{enable-background:new    ;}
	.st1{fill:#1C75BC;stroke:#1C75BC;stroke-width:0.25;stroke-miterlimit:10;}
	.st2{fill:#FFFFFF;}
	.st3{fill:#1C75BC;}
	.st4{fill:#1C75BC;stroke:#1C75BC;stroke-width:0.125;stroke-miterlimit:10;}
	.st5{fill:#48A1D9;}
	.st6{fill:#289245;}
	.st7{fill:#F89938;}
	.st8{fill:#1F5E30;}
	.st9{fill:#E34E25;}
</style>
<g class="st0">
	<path class="st1" d="M2.1,22.8c1,0.6,2.4,1.1,3.9,1.1c2.2,0,3.5-1.2,3.5-2.9c0-1.6-0.9-2.5-3.2-3.4c-2.8-1-4.5-2.4-4.5-4.8
		c0-2.6,2.2-4.6,5.5-4.6c1.7,0,3,0.4,3.8,0.8l-0.6,1.8C9.9,10.5,8.8,10,7.3,10c-2.3,0-3.2,1.4-3.2,2.5c0,1.6,1,2.4,3.4,3.3
		c2.9,1.1,4.3,2.5,4.3,5c0,2.6-1.9,4.9-5.9,4.9c-1.6,0-3.4-0.5-4.3-1.1L2.1,22.8z"/>
	<path class="st1" d="M14.7,17.3c0-1.6-0.1-2.8-0.1-4h2l0.1,2.1h0.1c0.9-1.5,2.3-2.4,4.3-2.4c2.9,0,5.2,2.5,5.2,6.2
		c0,4.4-2.7,6.5-5.5,6.5c-1.6,0-3-0.7-3.8-1.9h-0.1v6.6h-2.2C14.7,30.4,14.7,17.3,14.7,17.3z M16.9,20.5c0,0.3,0.1,0.6,0.1,0.9
		c0.4,1.6,1.8,2.6,3.3,2.6c2.3,0,3.7-1.9,3.7-4.7c0-2.4-1.3-4.5-3.6-4.5c-1.5,0-2.9,1.1-3.3,2.7c-0.1,0.3-0.2,0.6-0.2,0.9
		C16.9,18.4,16.9,20.5,16.9,20.5z"/>
	<path class="st1" d="M30.3,19.8c0.1,3,2,4.2,4.2,4.2c1.6,0,2.5-0.3,3.4-0.6l0.4,1.6c-0.8,0.4-2.1,0.8-4.1,0.8c-3.8,0-6-2.5-6-6.1
		s2.2-6.6,5.7-6.6c4,0,5,3.5,5,5.7c0,0.5,0,0.8-0.1,1H30.3z M36.8,18.2c0-1.4-0.6-3.6-3.1-3.6c-2.2,0-3.2,2.1-3.4,3.6H36.8z"/>
	<path class="st1" d="M50.4,25c-0.6,0.3-1.9,0.7-3.5,0.7c-3.7,0-6.1-2.5-6.1-6.2c0-3.8,2.6-6.5,6.5-6.5c1.3,0,2.5,0.3,3.1,0.6
		l-0.5,1.7c-0.5-0.3-1.4-0.6-2.6-0.6c-2.8,0-4.3,2.1-4.3,4.6c0,2.8,1.8,4.6,4.2,4.6c1.3,0,2.1-0.3,2.7-0.6L50.4,25z"/>
	<path class="st1" d="M55.4,9.9c0,0.8-0.5,1.4-1.4,1.4c-0.8,0-1.3-0.6-1.3-1.4c0-0.8,0.6-1.4,1.4-1.4S55.4,9.1,55.4,9.9z M53,25.5
		V13.3h2.2v12.2H53z"/>
	<path class="st1" d="M59.1,25.5V15h-1.7v-1.7h1.7v-0.6c0-1.7,0.4-3.3,1.4-4.3c0.8-0.8,1.9-1.1,3-1.1c0.8,0,1.5,0.2,1.9,0.4
		l-0.3,1.7c-0.3-0.2-0.8-0.3-1.4-0.3c-1.9,0-2.4,1.7-2.4,3.5v0.7h2.9V15h-2.9v10.5H59.1z"/>
	<path class="st1" d="M67,13.3l2.7,7.2c0.3,0.8,0.6,1.8,0.8,2.5h0.1c0.2-0.7,0.5-1.7,0.8-2.5l2.4-7.2h2.3L72.7,22
		c-1.6,4.2-2.7,6.3-4.2,7.6c-1.1,1-2.2,1.3-2.7,1.4l-0.6-1.9c0.6-0.2,1.3-0.5,1.9-1.1c0.6-0.5,1.4-1.3,1.9-2.5
		c0.1-0.2,0.2-0.4,0.2-0.5s-0.1-0.3-0.2-0.6l-4.5-11.2H67V13.3z"/>
	<path class="st1" d="M83.5,25.5v-17h2.4l5.4,8.6c1.3,2,2.2,3.8,3,5.5l0,0c-0.2-2.3-0.3-4.3-0.3-7V8.5h2.1v17h-2.2l-5.4-8.6
		c-1.2-1.9-2.3-3.8-3.2-5.7h-0.1c0.1,2.1,0.2,4.2,0.2,7v7.3H83.5z"/>
	<path class="st1" d="M101.2,19.8c0.1,3,2,4.2,4.2,4.2c1.6,0,2.5-0.3,3.4-0.6l0.4,1.6c-0.8,0.4-2.1,0.8-4.1,0.8c-3.8,0-6-2.5-6-6.1
		s2.2-6.6,5.7-6.6c4,0,5,3.5,5,5.7c0,0.5,0,0.8-0.1,1H101.2z M107.7,18.2c0-1.4-0.6-3.6-3.1-3.6c-2.2,0-3.2,2.1-3.4,3.6H107.7z"/>
	<path class="st1" d="M115.3,9.8v3.5h3.2V15h-3.2v6.6c0,1.5,0.4,2.4,1.7,2.4c0.6,0,1-0.1,1.3-0.2l0.1,1.7c-0.4,0.2-1.1,0.3-2,0.3
		c-1,0-1.9-0.3-2.4-0.9c-0.6-0.7-0.9-1.7-0.9-3.2V15h-1.9v-1.7h1.9v-2.9L115.3,9.8z"/>
	<path class="st1" d="M122,13.3l1.6,6.2c0.4,1.4,0.7,2.6,0.9,3.9h0.1c0.3-1.2,0.7-2.5,1.1-3.9l2-6.2h1.9l1.9,6.1
		c0.5,1.5,0.8,2.7,1.1,4h0.1c0.2-1.2,0.5-2.5,0.9-4l1.7-6.1h2.2l-3.9,12.2h-2l-1.9-5.8c-0.4-1.4-0.8-2.6-1.1-4l0,0
		c-0.3,1.5-0.7,2.7-1.1,4l-2,5.8h-2l-3.7-12.2H122z"/>
	<path class="st1" d="M150.5,19.3c0,4.5-3.1,6.5-6.1,6.5c-3.3,0-5.8-2.4-5.8-6.3c0-4.1,2.7-6.5,6-6.5
		C148.1,13,150.5,15.6,150.5,19.3z M140.8,19.4c0,2.7,1.5,4.7,3.7,4.7c2.1,0,3.7-2,3.7-4.7c0-2.1-1-4.7-3.7-4.7
		C141.9,14.7,140.8,17.1,140.8,19.4z"/>
	<path class="st1" d="M153.3,17.1c0-1.4,0-2.7-0.1-3.8h1.9l0.1,2.4h0.1c0.6-1.6,1.9-2.7,3.4-2.7c0.3,0,0.4,0,0.6,0.1v2.1
		c-0.2,0-0.5-0.1-0.8-0.1c-1.6,0-2.7,1.2-3,2.8c0,0.3-0.1,0.7-0.1,1v6.5h-2.2v-8.3H153.3z"/>
	<path class="st1" d="M163.8,18.9L163.8,18.9c0.4-0.4,0.8-1,1.1-1.4l3.6-4.2h2.7l-4.7,5l5.4,7.2h-2.7l-4.2-5.8l-1.1,1.3v4.6h-2.2
		v-18h2.2v11.3H163.8z"/>
</g>
<polygon class="st2" points="197.1,0.8 212.4,8 212.4,23.7 197.5,35.3 185.7,26.2 182.3,8.4 "/>
<polygon class="st3" points="212.3,8 205.5,12.2 190.9,3.8 197,0.3 "/>
<g class="st0">
	<path class="st4" d="M191.3,20c0.5,0.3,1.1,0.5,1.9,0.5c1.1,0,1.7-0.6,1.7-1.4s-0.4-1.2-1.5-1.6c-1.3-0.5-2.1-1.1-2.1-2.3
		c0-1.3,1-2.2,2.6-2.2c0.8,0,1.4,0.2,1.8,0.4l-0.3,0.8c-0.3-0.1-0.8-0.4-1.5-0.4c-1.1,0-1.5,0.7-1.5,1.2c0,0.8,0.5,1.1,1.6,1.6
		c1.4,0.5,2.1,1.2,2.1,2.4c0,1.2-0.9,2.3-2.8,2.3c-0.8,0-1.6-0.2-2.1-0.5L191.3,20z"/>
	<path class="st4" d="M197.3,21.3v-8.1h1.1l2.6,4.1c0.6,0.9,1.1,1.8,1.4,2.6l0,0c-0.1-1.1-0.1-2.1-0.1-3.3v-3.4h1v8.1h-1.1l-2.6-4.1
		c-0.6-0.9-1.1-1.8-1.5-2.7l0,0c0.1,1,0.1,2,0.1,3.3v3.4L197.3,21.3L197.3,21.3z"/>
</g>
<polygon class="st5" points="182.9,8.1 197,0.3 203.6,3.6 189.4,12.1 "/>
<polygon class="st6" points="212.5,8.4 205.9,12.4 205.8,29.5 212.5,24.8 "/>
<polygon class="st7" points="188.9,12.5 188.8,29.3 182.4,25.5 182.3,8.4 "/>
<polygon class="st8" points="198.8,26.3 212.5,18 212.6,24.9 198.1,34.8 "/>
<polygon class="st9" points="196.2,26.1 182.3,17.8 182.4,25.5 196.8,34.8 "/>
</svg>
