<svg xmlns="http://www.w3.org/2000/svg" viewBox="0 0 36 36"><style type="text/css">.st2{fill:#1C75BC;stroke:#1C75BC;stroke-width:0.25;stroke-miterlimit:10;}</style><polygon fill="#fff" points="17.8,0.6 33.6,8 33.5,24.1 18.3,36 6.1,26.7 2.7,8.4 "/><polygon fill="#1c75bc" points="33.5,8 26.5,12.3 11.4,3.6 17.8,0.1 "/><path class="st2" d="M11.9,20.3c0.5,0.3,1.2,0.5,1.9,0.5c1.1,0,1.7-0.6,1.7-1.4c0-0.8-0.4-1.2-1.6-1.6c-1.3-0.5-2.2-1.2-2.2-2.3c0-1.3,1.1-2.2,2.7-2.2c0.8,0,1.5,0.2,1.8,0.4L16,14.5c-0.3-0.1-0.8-0.4-1.6-0.4c-1.1,0-1.6,0.7-1.6,1.2c0,0.8,0.5,1.2,1.6,1.6c1.4,0.5,2.1,1.2,2.1,2.4c0,1.3-0.9,2.4-2.9,2.4c-0.8,0-1.7-0.2-2.1-0.5L11.9,20.3z"/><path class="st2" d="M18.1,21.6v-8.3h1.2l2.7,4.2c0.6,1,1.1,1.8,1.5,2.7l0,0c-0.1-1.1-0.1-2.1-0.1-3.4v-3.5h1v8.3h-1.1l-2.6-4.2c-0.6-0.9-1.1-1.9-1.5-2.8l0,0c0.1,1,0.1,2,0.1,3.4v3.5H18.1z"/><polygon fill="#48A1D9" points="3.2,8.1 17.8,0.1 24.5,3.5 10,12.2 "/><polygon fill="#289245" points="33.7,8.4 26.9,12.5 26.8,30.1 33.6,25.3 "/><polygon fill="#f89938" points="9.4,12.6 9.4,29.9 2.8,25.9 2.7,8.4 "/><polygon fill="#1f5e30" points="19.6,26.8 33.7,18.2 33.8,25.3 18.9,35.5 "/><polygon fill="#e34e25" points="16.9,26.6 2.7,18.1 2.7,26 17.6,35.5 "/></svg>