<svg xmlns="http://www.w3.org/2000/svg" viewBox="0 0 31 36"><path fill="#fff" d="M15.1.8L30.4 8v15.7l-14.9 11.6-11.8-9.1-3.4-17.8z"/><path fill="#1c75bc" d="M30.3 8l-6.8 4.2-14.6-8.4L15 .3z"/><path d="M9.3 20c.5.3 1.1.5 1.9.5 1.1 0 1.7-.6 1.7-1.4s-.4-1.2-1.5-1.6c-1.3-.5-2.1-1.1-2.1-2.3 0-1.3 1-2.2 2.6-2.2.8 0 1.4.2 1.8.4l-.3.8c-.3-.1-.8-.4-1.5-.4-1.1 0-1.5.7-1.5 1.2 0 .8.5 1.1 1.6 1.6 1.4.5 2.1 1.2 2.1 2.4s-.9 2.3-2.8 2.3c-.8 0-1.6-.2-2.1-.5l.1-.8zm6 1.3v-8.1h1.1l2.6 4.1c.6.9 1.1 1.8 1.4 2.6-.1-1.1-.1-2.1-.1-3.3v-3.4h1v8.1h-1.1l-2.6-4.1c-.6-.9-1.1-1.8-1.5-2.7.1 1 .1 2 .1 3.3v3.4l-.9.1z" enable-background="new" fill="#1c75bc" stroke="#1c75bc" stroke-width=".125" stroke-miterlimit="10"/><path xmlns="http://www.w3.org/2000/svg" fill="#48a1d9" d="M.9 8.1L15 .3l6.6 3.3-14.2 8.5z"/><path xmlns="http://www.w3.org/2000/svg" fill="#289245" d="M30.5 8.4l-6.6 4-.1 17.1 6.7-4.7z"/><path fill="#f89938" d="M6.9 12.5l-.1 16.8-6.4-3.8-.1-17.1z"/><path fill="#1f5e30" d="M16.8 26.3l13.7-8.3.1 6.9-14.5 9.9z"/><path fill="#e34e25" d="M14.2 26.1l-13.9-8.3.1 7.7 14.4 9.3z"/></svg>