<?xml version="1.0" encoding="utf-8"?>
<!-- Generator: Adobe Illustrator 25.4.1, SVG Export Plug-In . SVG Version: 6.00 Build 0)  -->
<svg version="1.1" id="Layer_1" xmlns="http://www.w3.org/2000/svg" xmlns:xlink="http://www.w3.org/1999/xlink" x="0px" y="0px"
	 viewBox="0 0 232 36" style="enable-background:new 0 0 232 36;" xml:space="preserve">
<style type="text/css">
	.st0{fill:#FFFFFF;}
	.st1{fill:#1C75BC;stroke:#1C75BC;stroke-width:0.25;stroke-miterlimit:10;}
	.st2{fill:#1C75BC;}
	.st3{fill:#48A1D9;}
	.st4{fill:#289245;}
	.st5{fill:#F7941D;}
	.st6{fill:#1F5E30;}
	.st7{fill:#E34E25;}
</style>
<polygon class="st0" points="211.2,1.4 225.8,9.5 225.6,25.6 211.4,35.3 197.1,25.3 197.5,9.2 "/>
<g>
	<path class="st1" d="M20.1,21.9c1,0.6,2.4,1.1,3.9,1.1c2.2,0,3.5-1.2,3.5-2.9c0-1.6-0.9-2.5-3.2-3.4c-2.8-1-4.5-2.4-4.5-4.8
		c0-2.6,2.2-4.6,5.5-4.6c1.7,0,3,0.4,3.8,0.8l-0.6,1.8c-0.6-0.3-1.7-0.8-3.2-0.8c-2.3,0-3.2,1.4-3.2,2.5c0,1.6,1,2.4,3.4,3.3
		c2.9,1.1,4.3,2.5,4.3,5c0,2.6-1.9,4.9-5.9,4.9c-1.6,0-3.4-0.5-4.3-1.1L20.1,21.9z"/>
	<path class="st1" d="M32.7,16.4c0-1.6-0.1-2.8-0.1-4h2l0.1,2.1h0.1c0.9-1.5,2.3-2.4,4.3-2.4c2.9,0,5.2,2.5,5.2,6.2
		c0,4.4-2.7,6.5-5.5,6.5c-1.6,0-3-0.7-3.8-1.9h-0.1v6.6h-2.2V16.4z M34.9,19.6c0,0.3,0.1,0.6,0.1,0.9c0.4,1.5,1.7,2.6,3.3,2.6
		c2.3,0,3.7-1.9,3.7-4.7c0-2.4-1.3-4.5-3.6-4.5c-1.5,0-2.9,1.1-3.3,2.7c-0.1,0.3-0.2,0.6-0.2,0.9V19.6z"/>
	<path class="st1" d="M48.3,18.9c0.1,3,2,4.2,4.2,4.2c1.6,0,2.5-0.3,3.4-0.6l0.4,1.6c-0.8,0.4-2.1,0.8-4.1,0.8c-3.8,0-6-2.5-6-6.1
		s2.2-6.6,5.7-6.6c4,0,5,3.5,5,5.7c0,0.5-0.1,0.8-0.1,1H48.3z M54.8,17.3c0-1.4-0.6-3.6-3.1-3.6c-2.2,0-3.2,2.1-3.4,3.6H54.8z"/>
	<path class="st1" d="M68.4,24.1c-0.6,0.3-1.9,0.7-3.5,0.7c-3.7,0-6.1-2.5-6.1-6.2c0-3.8,2.6-6.5,6.5-6.5c1.3,0,2.5,0.3,3.1,0.6
		l-0.5,1.7c-0.5-0.3-1.4-0.6-2.6-0.6c-2.8,0-4.3,2.1-4.3,4.6c0,2.8,1.8,4.6,4.2,4.6c1.3,0,2.1-0.3,2.7-0.6L68.4,24.1z"/>
	<path class="st1" d="M73.4,9c0,0.8-0.5,1.4-1.4,1.4c-0.8,0-1.3-0.6-1.3-1.4c0-0.8,0.6-1.4,1.4-1.4C72.9,7.6,73.4,8.2,73.4,9z
		 M71,24.6V12.4h2.2v12.2H71z"/>
	<path class="st1" d="M77.1,24.6V14.1h-1.7v-1.7h1.7v-0.6c0-1.7,0.4-3.3,1.4-4.3c0.8-0.8,1.9-1.1,3-1.1c0.8,0,1.5,0.2,1.9,0.4
		L83,8.5c-0.3-0.2-0.8-0.3-1.4-0.3c-1.9,0-2.4,1.7-2.4,3.5v0.7h2.9v1.7h-2.9v10.5H77.1z"/>
	<path class="st1" d="M85,12.4l2.7,7.2c0.3,0.8,0.6,1.8,0.8,2.5h0.1c0.2-0.7,0.5-1.7,0.8-2.5l2.4-7.2H94l-3.3,8.7
		c-1.6,4.2-2.7,6.3-4.2,7.6c-1.1,1-2.2,1.3-2.7,1.4l-0.6-1.9c0.6-0.2,1.3-0.5,1.9-1.1c0.6-0.5,1.4-1.3,1.9-2.5
		c0.1-0.2,0.2-0.4,0.2-0.5s-0.1-0.3-0.2-0.6l-4.5-11.2H85z"/>
	<path class="st1" d="M101.5,24.6v-17h2.4l5.4,8.6c1.3,2,2.2,3.8,3,5.5l0,0c-0.2-2.3-0.3-4.3-0.3-7V7.6h2.1v17H112l-5.4-8.6
		c-1.2-1.9-2.3-3.8-3.2-5.7l-0.1,0c0.1,2.1,0.2,4.2,0.2,7v7.3H101.5z"/>
	<path class="st1" d="M119.2,18.9c0.1,3,2,4.2,4.2,4.2c1.6,0,2.5-0.3,3.4-0.6l0.4,1.6c-0.8,0.4-2.1,0.8-4.1,0.8c-3.8,0-6-2.5-6-6.1
		s2.2-6.6,5.7-6.6c4,0,5,3.5,5,5.7c0,0.5,0,0.8-0.1,1H119.2z M125.7,17.3c0-1.4-0.6-3.6-3.1-3.6c-2.2,0-3.2,2.1-3.4,3.6H125.7z"/>
	<path class="st1" d="M133.3,8.9v3.5h3.2v1.7h-3.2v6.6c0,1.5,0.4,2.4,1.7,2.4c0.6,0,1-0.1,1.3-0.2l0.1,1.7c-0.4,0.2-1.1,0.3-2,0.3
		c-1,0-1.9-0.3-2.4-0.9c-0.6-0.7-0.9-1.7-0.9-3.2v-6.6h-1.9v-1.7h1.9V9.5L133.3,8.9z"/>
	<path class="st1" d="M140,12.4l1.6,6.2c0.4,1.4,0.7,2.6,0.9,3.9h0.1c0.3-1.2,0.7-2.5,1.1-3.9l2-6.2h1.9l1.9,6.1
		c0.5,1.5,0.8,2.7,1.1,4h0.1c0.2-1.2,0.5-2.5,0.9-4l1.7-6.1h2.2l-3.9,12.2h-2l-1.9-5.8c-0.4-1.4-0.8-2.6-1.1-4h-0.1
		c-0.3,1.5-0.7,2.7-1.1,4l-2,5.8h-2l-3.7-12.2H140z"/>
	<path class="st1" d="M168.5,18.4c0,4.5-3.1,6.5-6.1,6.5c-3.3,0-5.8-2.4-5.8-6.3c0-4.1,2.7-6.5,6-6.5
		C166.1,12.1,168.5,14.6,168.5,18.4z M158.8,18.5c0,2.7,1.5,4.7,3.7,4.7c2.1,0,3.7-2,3.7-4.7c0-2.1-1-4.7-3.7-4.7
		C159.9,13.8,158.8,16.2,158.8,18.5z"/>
	<path class="st1" d="M171.3,16.2c0-1.4,0-2.7-0.1-3.8h1.9l0.1,2.4h0.1c0.6-1.6,1.9-2.7,3.4-2.7c0.3,0,0.4,0,0.6,0.1v2.1
		c-0.2-0.1-0.5-0.1-0.8-0.1c-1.6,0-2.7,1.2-3,2.8c0,0.3-0.1,0.7-0.1,1v6.5h-2.2V16.2z"/>
	<path class="st1" d="M181.8,18L181.8,18c0.4-0.4,0.8-1,1.1-1.4l3.6-4.2h2.7l-4.7,5l5.4,7.2h-2.7l-4.2-5.8l-1.1,1.3v4.6h-2.2V6.7
		h2.2V18z"/>
</g>
<polygon class="st2" points="225.9,9 219.3,13.1 205.3,4.9 211.2,1.6 "/>
<g>
	<path class="st1" d="M205.6,20.8c0.4,0.3,1.1,0.5,1.8,0.5c1,0,1.6-0.5,1.6-1.3c0-0.7-0.4-1.1-1.5-1.5c-1.3-0.4-2-1.1-2-2.2
		c0-1.2,1-2.1,2.5-2.1c0.8,0,1.4,0.2,1.7,0.4l-0.3,0.8c-0.3-0.1-0.8-0.4-1.5-0.4c-1.1,0-1.5,0.6-1.5,1.2c0,0.7,0.5,1.1,1.5,1.5
		c1.3,0.5,2,1.1,2,2.3c0,1.2-0.9,2.2-2.7,2.2c-0.7,0-1.6-0.2-2-0.5L205.6,20.8z"/>
	<path class="st1" d="M211.4,22v-7.7h1.1l2.5,3.9c0.6,0.9,1,1.7,1.4,2.5l0,0c-0.1-1-0.1-2-0.1-3.2v-3.2h0.9V22h-1l-2.5-3.9
		c-0.5-0.9-1.1-1.7-1.4-2.6l0,0c0.1,1,0.1,1.9,0.1,3.2V22H211.4z"/>
</g>
<polygon class="st3" points="197.6,9.1 211.2,1.6 217.5,4.8 203.9,13 "/>
<polygon class="st4" points="226.1,9.4 219.7,13.3 219.7,29.7 226,25.2 "/>
<polygon class="st5" points="203.4,13.3 203.3,29.5 197.1,25.8 197,9.4 "/>
<polygon class="st6" points="212.9,26.6 226.1,18.6 226.1,25.9 212.3,34.7 "/>
<polygon class="st7" points="210.4,26.4 197.1,18.4 197.2,25.9 211,34.7 "/>
</svg>
