<?xml version="1.0" encoding="UTF-8"?><svg enable-background="new 0 0 213.6 36" version="1.1" viewBox="0 0 213.6 36" xml:space="preserve" xmlns="http://www.w3.org/2000/svg"><style type="text/css">.st0{enable-background:new}.st1{fill:#1C75BC;stroke:#1C75BC;stroke-width:0.25;stroke-miterlimit:10}.st4{fill:#1C75BC;stroke:#1C75BC;stroke-width:0.125;stroke-miterlimit:10}</style><g class="st0"><path class="st1" d="m2.1 22.8c1 0.6 2.4 1.1 3.9 1.1 2.2 0 3.5-1.2 3.5-2.9 0-1.6-0.9-2.5-3.2-3.4-2.8-1-4.5-2.4-4.5-4.8 0-2.6 2.2-4.6 5.5-4.6 1.7 0 3 0.4 3.8 0.8l-0.6 1.8c-0.6-0.3-1.7-0.8-3.2-0.8-2.3 0-3.2 1.4-3.2 2.5 0 1.6 1 2.4 3.4 3.3 2.9 1.1 4.3 2.5 4.3 5 0 2.6-1.9 4.9-5.9 4.9-1.6 0-3.4-0.5-4.3-1.1l0.5-1.8z"/><path class="st1" d="m14.7 17.3c0-1.6-0.1-2.8-0.1-4h2l0.1 2.1h0.1c0.9-1.5 2.3-2.4 4.3-2.4 2.9 0 5.2 2.5 5.2 6.2 0 4.4-2.7 6.5-5.5 6.5-1.6 0-3-0.7-3.8-1.9h-0.1v6.6h-2.2v-13.1zm2.2 3.2c0 0.3 0.1 0.6 0.1 0.9 0.4 1.6 1.8 2.6 3.3 2.6 2.3 0 3.7-1.9 3.7-4.7 0-2.4-1.3-4.5-3.6-4.5-1.5 0-2.9 1.1-3.3 2.7-0.1 0.3-0.2 0.6-0.2 0.9v2.1z"/><path class="st1" d="m30.3 19.8c0.1 3 2 4.2 4.2 4.2 1.6 0 2.5-0.3 3.4-0.6l0.4 1.6c-0.8 0.4-2.1 0.8-4.1 0.8-3.8 0-6-2.5-6-6.1s2.2-6.6 5.7-6.6c4 0 5 3.5 5 5.7 0 0.5 0 0.8-0.1 1h-8.5zm6.5-1.6c0-1.4-0.6-3.6-3.1-3.6-2.2 0-3.2 2.1-3.4 3.6h6.5z"/><path class="st1" d="m50.4 25c-0.6 0.3-1.9 0.7-3.5 0.7-3.7 0-6.1-2.5-6.1-6.2 0-3.8 2.6-6.5 6.5-6.5 1.3 0 2.5 0.3 3.1 0.6l-0.5 1.7c-0.5-0.3-1.4-0.6-2.6-0.6-2.8 0-4.3 2.1-4.3 4.6 0 2.8 1.8 4.6 4.2 4.6 1.3 0 2.1-0.3 2.7-0.6l0.5 1.7z"/><path class="st1" d="m55.4 9.9c0 0.8-0.5 1.4-1.4 1.4-0.8 0-1.3-0.6-1.3-1.4s0.6-1.4 1.4-1.4 1.3 0.6 1.3 1.4zm-2.4 15.6v-12.2h2.2v12.2h-2.2z"/><path class="st1" d="m59.1 25.5v-10.5h-1.7v-1.7h1.7v-0.6c0-1.7 0.4-3.3 1.4-4.3 0.8-0.8 1.9-1.1 3-1.1 0.8 0 1.5 0.2 1.9 0.4l-0.3 1.7c-0.3-0.2-0.8-0.3-1.4-0.3-1.9 0-2.4 1.7-2.4 3.5v0.7h2.9v1.7h-2.9v10.5h-2.2z"/><path class="st1" d="m67 13.3 2.7 7.2c0.3 0.8 0.6 1.8 0.8 2.5h0.1c0.2-0.7 0.5-1.7 0.8-2.5l2.4-7.2h2.3l-3.4 8.7c-1.6 4.2-2.7 6.3-4.2 7.6-1.1 1-2.2 1.3-2.7 1.4l-0.6-1.9c0.6-0.2 1.3-0.5 1.9-1.1 0.6-0.5 1.4-1.3 1.9-2.5 0.1-0.2 0.2-0.4 0.2-0.5s-0.1-0.3-0.2-0.6l-4.5-11.2h2.5v0.1z"/><path class="st1" d="m83.5 25.5v-17h2.4l5.4 8.6c1.3 2 2.2 3.8 3 5.5-0.2-2.3-0.3-4.3-0.3-7v-7.1h2.1v17h-2.2l-5.4-8.6c-1.2-1.9-2.3-3.8-3.2-5.7h-0.1c0.1 2.1 0.2 4.2 0.2 7v7.3h-1.9z"/><path class="st1" d="m101.2 19.8c0.1 3 2 4.2 4.2 4.2 1.6 0 2.5-0.3 3.4-0.6l0.4 1.6c-0.8 0.4-2.1 0.8-4.1 0.8-3.8 0-6-2.5-6-6.1s2.2-6.6 5.7-6.6c4 0 5 3.5 5 5.7 0 0.5 0 0.8-0.1 1h-8.5zm6.5-1.6c0-1.4-0.6-3.6-3.1-3.6-2.2 0-3.2 2.1-3.4 3.6h6.5z"/><path class="st1" d="m115.3 9.8v3.5h3.2v1.7h-3.2v6.6c0 1.5 0.4 2.4 1.7 2.4 0.6 0 1-0.1 1.3-0.2l0.1 1.7c-0.4 0.2-1.1 0.3-2 0.3-1 0-1.9-0.3-2.4-0.9-0.6-0.7-0.9-1.7-0.9-3.2v-6.7h-1.9v-1.7h1.9v-2.9l2.2-0.6z"/><path class="st1" d="m122 13.3 1.6 6.2c0.4 1.4 0.7 2.6 0.9 3.9h0.1c0.3-1.2 0.7-2.5 1.1-3.9l2-6.2h1.9l1.9 6.1c0.5 1.5 0.8 2.7 1.1 4h0.1c0.2-1.2 0.5-2.5 0.9-4l1.7-6.1h2.2l-3.9 12.2h-2l-1.9-5.8c-0.4-1.4-0.8-2.6-1.1-4-0.3 1.5-0.7 2.7-1.1 4l-2 5.8h-2l-3.7-12.2h2.2z"/><path class="st1" d="m150.5 19.3c0 4.5-3.1 6.5-6.1 6.5-3.3 0-5.8-2.4-5.8-6.3 0-4.1 2.7-6.5 6-6.5 3.5 0 5.9 2.6 5.9 6.3zm-9.7 0.1c0 2.7 1.5 4.7 3.7 4.7 2.1 0 3.7-2 3.7-4.7 0-2.1-1-4.7-3.7-4.7-2.6 0-3.7 2.4-3.7 4.7z"/><path class="st1" d="m153.3 17.1c0-1.4 0-2.7-0.1-3.8h1.9l0.1 2.4h0.1c0.6-1.6 1.9-2.7 3.4-2.7 0.3 0 0.4 0 0.6 0.1v2.1c-0.2 0-0.5-0.1-0.8-0.1-1.6 0-2.7 1.2-3 2.8 0 0.3-0.1 0.7-0.1 1v6.5h-2.2v-8.3h0.1z"/><path class="st1" d="m163.8 18.9c0.4-0.4 0.8-1 1.1-1.4l3.6-4.2h2.7l-4.7 5 5.4 7.2h-2.7l-4.2-5.8-1.1 1.3v4.6h-2.2v-18h2.2v11.3h-0.1z"/></g><polygon points="197.1 0.8 212.4 8 212.4 23.7 197.5 35.3 185.7 26.2 182.3 8.4" fill="#FFF"/><polygon points="212.3 8 205.5 12.2 190.9 3.8 197 0.3" fill="#1C75BC"/><g class="st0"><path class="st4" d="m191.3 20c0.5 0.3 1.1 0.5 1.9 0.5 1.1 0 1.7-0.6 1.7-1.4s-0.4-1.2-1.5-1.6c-1.3-0.5-2.1-1.1-2.1-2.3 0-1.3 1-2.2 2.6-2.2 0.8 0 1.4 0.2 1.8 0.4l-0.3 0.8c-0.3-0.1-0.8-0.4-1.5-0.4-1.1 0-1.5 0.7-1.5 1.2 0 0.8 0.5 1.1 1.6 1.6 1.4 0.5 2.1 1.2 2.1 2.4s-0.9 2.3-2.8 2.3c-0.8 0-1.6-0.2-2.1-0.5l0.1-0.8z"/><path class="st4" d="m197.3 21.3v-8.1h1.1l2.6 4.1c0.6 0.9 1.1 1.8 1.4 2.6-0.1-1.1-0.1-2.1-0.1-3.3v-3.4h1v8.1h-1.1l-2.6-4.1c-0.6-0.9-1.1-1.8-1.5-2.7 0.1 1 0.1 2 0.1 3.3v3.4l-0.9 0.1z"/></g><polygon points="182.9 8.1 197 0.3 203.6 3.6 189.4 12.1" fill="#48A1D9"/><polygon points="212.5 8.4 205.9 12.4 205.8 29.5 212.5 24.8" fill="#289245"/><polygon points="188.9 12.5 188.8 29.3 182.4 25.5 182.3 8.4" fill="#F89938"/><polygon points="198.8 26.3 212.5 18 212.6 24.9 198.1 34.8" fill="#1F5E30"/><polygon points="196.2 26.1 182.3 17.8 182.4 25.5 196.8 34.8" fill="#E34E25"/></svg>