<?xml version="1.0" encoding="UTF-8" standalone="no"?>
<svg
   xmlns:dc="http://purl.org/dc/elements/1.1/"
   xmlns:cc="http://creativecommons.org/ns#"
   xmlns:rdf="http://www.w3.org/1999/02/22-rdf-syntax-ns#"
   xmlns:svg="http://www.w3.org/2000/svg"
   xmlns="http://www.w3.org/2000/svg"
   xmlns:xlink="http://www.w3.org/1999/xlink"
   version="1.1"
   width="128"
   height="128"
   id="svg3172">
  <defs
     id="defs3174">
    <radialGradient
       r="12.671875"
       fy="9.9941158"
       fx="8.276144"
       cy="9.9941158"
       cx="8.276144"
       gradientTransform="matrix(0,20.003199,-24.504002,0,309.11226,-193.38737)"
       gradientUnits="userSpaceOnUse"
       id="radialGradient3897"
       xlink:href="#linearGradient3242-4" />
    <linearGradient
       id="linearGradient3242-4">
      <stop
         offset="0"
         style="stop-color:#f89b7e;stop-opacity:1"
         id="stop3244-7" />
      <stop
         offset="0.26238"
         style="stop-color:#e35d4f;stop-opacity:1"
         id="stop3246-1" />
      <stop
         offset="0.66093999"
         style="stop-color:#c6262e;stop-opacity:1"
         id="stop3248-5" />
      <stop
         offset="1"
         style="stop-color:#690b2c;stop-opacity:1"
         id="stop3250-7" />
    </linearGradient>
  </defs>
  <metadata
     id="metadata3177">
    <rdf:RDF>
      <cc:Work
         rdf:about="">
        <dc:format>image/svg+xml</dc:format>
        <dc:type
           rdf:resource="http://purl.org/dc/dcmitype/StillImage" />
        <dc:title />
      </cc:Work>
    </rdf:RDF>
  </metadata>
  <path
     d="m 17.499929,1.500412 c 21.311061,0 93.000031,0.007 93.000031,0.007 l 1.1e-4,116.992628 c 0,0 -62.0001,0 -93.00014,0 0,-39.000029 0,-78.000054 0,-117.000079 z"
     id="path4160"
     style="fill:#fafafa;fill-opacity:1;stroke:none;display:inline" />
  <path
     d="m 17.499929,1.5004119 c 21.311061,0 93.000031,0.007 93.000031,0.007 l 1.1e-4,116.9926281 c 0,0 -62.0001,0 -93.00014,0 0,-39.000029 0,-78.000054 0,-117.0000791 z"
     id="path4160-4"
     style="opacity:0.3;fill:none;stroke:#000000;stroke-width:0.99992186;stroke-linecap:butt;stroke-linejoin:round;stroke-miterlimit:4;stroke-opacity:1;stroke-dasharray:none;stroke-dashoffset:0;display:inline" />
  <path
     id="path6711"
     d="M 75.749995,2.0000014 C 48.852923,25.07916 29.82062,34.665262 18,38.625001 l 0,12.250001 C 24.569499,48.940525 32.713935,45.74479 41.187503,40.437502 60.68266,28.226978 83.9375,5.0625011 83.9375,5.0625011 77.545479,17.600835 75.686015,60.826777 75.562501,118 L 110,118 110,73.937502 c -1.51051,-6.723754 -2.85837,-13.526746 -4.06251,-20.0625 -3.17193,-24.070128 1.51349,-45.0946902 3.25001,-51.8750006 -0.45185,-5.05e-5 -20.328819,0.00131 -33.437505,0 z M 18,65.687502 l 0,11.8125 C 33.009298,83.695301 50.419177,99.667559 59.937501,118 L 70.1875,118 C 65.676635,101.19076 36.442618,75.836423 18,65.687502 Z"
     style="color:#000000;clip-rule:nonzero;display:inline;overflow:visible;visibility:visible;opacity:1;isolation:auto;mix-blend-mode:normal;color-interpolation:sRGB;color-interpolation-filters:linearRGB;solid-color:#000000;solid-opacity:1;fill:url(#radialGradient3897);fill-opacity:1;fill-rule:nonzero;stroke:none;stroke-width:0.99999994;stroke-linecap:butt;stroke-linejoin:miter;stroke-miterlimit:4;stroke-dasharray:none;stroke-dashoffset:0;stroke-opacity:1;marker:none;color-rendering:auto;image-rendering:auto;shape-rendering:auto;text-rendering:auto;enable-background:accumulate" />
  <path
     id="path4160-6-1-0"
     d="m 17.500049,39.063013 0,11.731579 m 58.353939,67.705328 34.645962,0 0,-44.056076 m -1.51874,-72.9398912 -32.907581,-0.0039 m -58.57358,64.3449602 0,11.189932 m 42.748932,41.387485 9.717522,0.0775"
     style="color:#000000;display:inline;overflow:visible;visibility:visible;opacity:0.2;fill:none;stroke:#410000;stroke-width:1;stroke-linecap:round;stroke-linejoin:round;stroke-miterlimit:4;stroke-dasharray:none;stroke-dashoffset:0;stroke-opacity:1;marker:none;enable-background:accumulate" />
</svg>
