<?xml version="1.0" encoding="UTF-8" standalone="no"?>
<svg
   xmlns:dc="http://purl.org/dc/elements/1.1/"
   xmlns:cc="http://creativecommons.org/ns#"
   xmlns:rdf="http://www.w3.org/1999/02/22-rdf-syntax-ns#"
   xmlns:svg="http://www.w3.org/2000/svg"
   xmlns="http://www.w3.org/2000/svg"
   xmlns:xlink="http://www.w3.org/1999/xlink"
   id="svg3172"
   height="128"
   width="128"
   version="1.1">
  <defs
     id="defs3174">
    <linearGradient
       id="linearGradient937">
      <stop
         id="stop933"
         offset="0"
         style="stop-color:#9bdb4d;stop-opacity:1" />
      <stop
         id="stop935"
         offset="1"
         style="stop-color:#3a9104;stop-opacity:1" />
    </linearGradient>
    <linearGradient
       id="linearGradient4169">
      <stop
         style="stop-color:#43d6b5;stop-opacity:1"
         offset="0"
         id="stop4171" />
      <stop
         style="stop-color:#0e9a83;stop-opacity:1"
         offset="1"
         id="stop4173" />
    </linearGradient>
    <linearGradient
       xlink:href="#linearGradient937"
       id="linearGradient4175"
       x1="60.538681"
       y1="1.5931232"
       x2="60.538681"
       y2="118.59026"
       gradientUnits="userSpaceOnUse" />
    <linearGradient
       xlink:href="#linearGradient4169"
       id="linearGradient911"
       x1="61"
       y1="63"
       x2="67"
       y2="63"
       gradientUnits="userSpaceOnUse" />
    <linearGradient
       xlink:href="#linearGradient937"
       id="linearGradient913"
       gradientUnits="userSpaceOnUse"
       x1="60.520607"
       y1="1.5206056"
       x2="60.551304"
       y2="118.53259" />
  </defs>
  <metadata
     id="metadata3177">
    <rdf:RDF>
      <cc:Work
         rdf:about="">
        <dc:format>image/svg+xml</dc:format>
        <dc:type
           rdf:resource="http://purl.org/dc/dcmitype/StillImage" />
        <dc:title />
      </cc:Work>
    </rdf:RDF>
  </metadata>
  <path
     style="fill:#fafafa;fill-opacity:1;stroke:none;display:inline"
     id="path4160"
     d="m 17.499929,1.500412 c 21.311061,0 93.000031,0.007 93.000031,0.007 l 1.1e-4,116.992628 c 0,0 -62.0001,0 -93.00014,0 0,-39.000029 0,-78.000054 0,-117.000079 z" />
  <path
     style="opacity:0.3;fill:none;stroke:#000000;stroke-width:0.99992186;stroke-linecap:butt;stroke-linejoin:round;stroke-miterlimit:4;stroke-opacity:1;stroke-dasharray:none;stroke-dashoffset:0;display:inline"
     id="path4160-4"
     d="m 17.499929,1.5004119 c 21.311061,0 93.000031,0.007 93.000031,0.007 l 1.1e-4,116.9926281 c 0,0 -62.0001,0 -93.00014,0 0,-39.000029 0,-78.000054 0,-117.0000791 z" />
  <path
     id="path3873-9"
     d="m 54,44.000001 c -2.89074,2.7e-5 -4.42298,0.428248 -5.874999,1.312499 C 46.68628,46.184852 46,47.573373 46,49.4375 L 46,55 c 0,1.111335 -0.495799,1.88783 -1.375,2.4375 -0.86588,0.537751 -2.82662,0.875012 -4.625,0.875 l 0,3.375 c 3.54346,8e-6 6,1.152366 6,3.375 l 0,5.0625 c 0,2.043394 0.65454,3.59182 2,4.5 1.35876,0.920119 2.92276,1.351094 6,1.375 l 0,-3.25 C 52.468041,72.7261 51.67938,72.439383 51.000001,71.9375 50.3206,71.435614 50,70.729874 50,69.75 l 0,-5.375 c 0,-2.40188 -1.19942,-3.819802 -4.25,-4.25 l 0,-0.25 C 48.80058,59.408975 50,57.940502 50,55.5625 L 50,50.25 c 0,-0.979854 0.3206,-1.63504 1.000001,-2.124999 C 51.6927,47.623137 52.48136,47.30977 54,47.250001 l 0,-3.25 z m 20,0 0,3.25 c 1.51864,0.05978 2.3073,0.373136 2.999999,0.875 C 77.6794,48.61496 78,49.270146 78,50.25 l 0,5.3125 c 0,2.378002 1.19942,3.846475 4.25,4.3125 l 0,0.25 C 79.19942,60.555198 78,61.97312 78,64.375 l 0,5.375 c 0,0.979874 -0.3206,1.685614 -1.000001,2.1875 C 76.32062,72.439383 75.531959,72.7261 74,72.75 L 74,76 c 3.07724,-0.0239 4.64124,-0.454881 6,-1.375 1.34546,-0.90818 2,-2.456606 2,-4.5 l 0,-5.0625 c 0,-2.222634 2.45654,-3.374992 6,-3.375 l 0,-3.375 c -1.79838,1.3e-5 -3.75912,-0.337249 -4.625,-0.874999 C 82.495799,56.88783 82,56.111335 82,55 l 0,-5.5625 C 82,47.573373 81.313699,46.184852 79.874999,45.3125 78.42298,44.428249 76.89074,44.000028 74,44.000001 z"
     style="font-size:19px;font-style:normal;font-variant:normal;font-weight:600;font-stretch:normal;text-align:start;line-height:125%;letter-spacing:0px;word-spacing:0px;writing-mode:lr-tb;text-anchor:start;color:#000000;fill:url(#linearGradient4175);fill-opacity:1.0;fill-rule:nonzero;stroke:none;marker:none;visibility:visible;display:inline;overflow:visible;enable-background:accumulate;font-family:Open Sans;-inkscape-font-specification:Open Sans Semi-Bold;clip-rule:nonzero;opacity:1;isolation:auto;mix-blend-mode:normal;color-interpolation:sRGB;color-interpolation-filters:linearRGB;solid-color:#000000;solid-opacity:1;stroke-width:1;stroke-linecap:butt;stroke-linejoin:round;stroke-miterlimit:4;stroke-dasharray:none;stroke-dashoffset:0;stroke-opacity:1;filter-blend-mode:normal;filter-gaussianBlur-deviation:0;color-rendering:auto;image-rendering:auto;shape-rendering:auto;text-rendering:auto" />
  <g
     aria-label=";"
     style="font-style:normal;font-weight:normal;font-size:40px;line-height:1.25;font-family:sans-serif;letter-spacing:0px;word-spacing:0px;fill:url(#linearGradient911);fill-opacity:1.0;stroke:none"
     id="text828">
    <path
       d="m 63,53 h 4 v 4 h -4 z m 0,12 h 4 v 3 l -3,5 h -3 l 2,-5 z"
       style="font-style:normal;font-variant:normal;font-weight:normal;font-stretch:normal;font-size:32px;font-family:'Noto Sans Gothic';-inkscape-font-specification:'Noto Sans Gothic, Normal';font-variant-ligatures:normal;font-variant-caps:normal;font-variant-numeric:normal;font-feature-settings:normal;text-align:start;writing-mode:lr-tb;text-anchor:start;fill:url(#linearGradient913);fill-opacity:1"
       id="path832" />
  </g>
</svg>
