<?xml version="1.0" encoding="UTF-8" standalone="no"?>
<svg
   xmlns:dc="http://purl.org/dc/elements/1.1/"
   xmlns:cc="http://creativecommons.org/ns#"
   xmlns:rdf="http://www.w3.org/1999/02/22-rdf-syntax-ns#"
   xmlns:svg="http://www.w3.org/2000/svg"
   xmlns="http://www.w3.org/2000/svg"
   xmlns:xlink="http://www.w3.org/1999/xlink"
   id="svg3172"
   height="128"
   width="128"
   version="1.1">
  <defs
     id="defs3174">
    <linearGradient
       xlink:href="#linearGradient4417"
       id="linearGradient4179-5"
       x1="21.330717"
       y1="0.69737434"
       x2="21.330717"
       y2="59.1875"
       gradientUnits="userSpaceOnUse"
       gradientTransform="matrix(2.0019317,0,0,2,10.971805,0.11407869)" />
    <linearGradient
       id="linearGradient4417">
      <stop
         id="stop4419"
         offset="0"
         style="stop-color:#ffa154;stop-opacity:1" />
      <stop
         id="stop4421"
         offset="1"
         style="stop-color:#cc3b02;stop-opacity:1" />
    </linearGradient>
  </defs>
  <metadata
     id="metadata3177">
    <rdf:RDF>
      <cc:Work
         rdf:about="">
        <dc:format>image/svg+xml</dc:format>
        <dc:type
           rdf:resource="http://purl.org/dc/dcmitype/StillImage" />
        <dc:title />
      </cc:Work>
    </rdf:RDF>
  </metadata>
  <path
     style="fill:#fafafa;fill-opacity:1;stroke:none;display:inline"
     id="path4160"
     d="m 17.499929,1.500412 c 21.311061,0 93.000031,0.007 93.000031,0.007 l 1.1e-4,116.992628 c 0,0 -62.0001,0 -93.00014,0 0,-39.000029 0,-78.000054 0,-117.000079 z" />
  <path
     style="opacity:0.3;fill:none;stroke:#000000;stroke-width:0.99992186;stroke-linecap:butt;stroke-linejoin:round;stroke-miterlimit:4;stroke-opacity:1;stroke-dasharray:none;stroke-dashoffset:0;display:inline"
     id="path4160-4"
     d="m 17.499929,1.5004119 c 21.311061,0 93.000031,0.007 93.000031,0.007 l 1.1e-4,116.9926281 c 0,0 -62.0001,0 -93.00014,0 0,-39.000029 0,-78.000054 0,-117.0000791 z" />
  <path
     d="m 85.499147,28 -29.513339,7.621088 c -2.217019,0.593454 -4.001822,2.954324 -4.001822,5.247306 l 0,36.356339 c -2.248089,-1.176037 -5.135355,-1.651552 -8.128663,-0.874553 -5.401492,1.402123 -8.7863,5.933557 -7.628461,10.119806 1.157838,4.186253 6.478892,6.524492 11.880384,5.122371 4.309258,-1.118587 7.279765,-4.2836 7.753501,-7.621088 l 0.124921,-34.357365 28.012651,-7.496151 0,27.111083 C 81.75023,68.0528 78.862963,67.577285 75.869655,68.354287 c -5.401492,1.402119 -8.786299,5.933554 -7.628461,10.119803 1.157858,4.186253 6.478892,6.524493 11.880384,5.122373 C 84.430836,82.477877 87.526264,79.31286 88,75.975374 l 10e-7,-44.727042 c 0,-1.719758 -1.063848,-3.006416 -2.501134,-3.248332 z"
     id="path16590-0"
     style="color:#000000;clip-rule:nonzero;display:inline;overflow:visible;visibility:visible;opacity:1;isolation:auto;mix-blend-mode:normal;color-interpolation:sRGB;color-interpolation-filters:linearRGB;solid-color:#000000;solid-opacity:1;fill:url(#linearGradient4179-5);fill-opacity:1;fill-rule:nonzero;stroke:none;stroke-width:0.99999994;stroke-linecap:butt;stroke-linejoin:miter;stroke-miterlimit:4;stroke-dasharray:none;stroke-dashoffset:0;stroke-opacity:1;marker:none;color-rendering:auto;image-rendering:auto;shape-rendering:auto;text-rendering:auto;enable-background:accumulate" />
</svg>
