<?xml version="1.0" encoding="UTF-8" standalone="no"?>
<svg
   xmlns:dc="http://purl.org/dc/elements/1.1/"
   xmlns:cc="http://creativecommons.org/ns#"
   xmlns:rdf="http://www.w3.org/1999/02/22-rdf-syntax-ns#"
   xmlns:svg="http://www.w3.org/2000/svg"
   xmlns="http://www.w3.org/2000/svg"
   xmlns:xlink="http://www.w3.org/1999/xlink"
   id="svg3172"
   height="128"
   width="128"
   version="1.1">
  <defs
     id="defs3174">
    <linearGradient
       id="linearGradient3104-6">
      <stop
         offset="0"
         style="stop-color:#000000;stop-opacity:0.31782946"
         id="stop3106-3" />
      <stop
         offset="1"
         style="stop-color:#000000;stop-opacity:0.24031007"
         id="stop3108-9" />
    </linearGradient>
    <linearGradient
       gradientTransform="matrix(2.1456297,0,0,2.3791292,158.08983,-7.746467)"
       gradientUnits="userSpaceOnUse"
       xlink:href="#linearGradient3104-6"
       id="linearGradient3148"
       y2="2.9062471"
       x2="-51.786404"
       y1="50.786446"
       x1="-51.786404" />
  </defs>
  <metadata
     id="metadata3177">
    <rdf:RDF>
      <cc:Work
         rdf:about="">
        <dc:format>image/svg+xml</dc:format>
        <dc:type
           rdf:resource="http://purl.org/dc/dcmitype/StillImage" />
        <dc:title />
      </cc:Work>
    </rdf:RDF>
  </metadata>
  <path
     style="fill:#fafafa;fill-opacity:1;stroke:none;display:inline"
     id="path4160"
     d="m 18,2.0004471 c 21.081878,0 91.99989,0.00694 91.99989,0.00694 L 110,118 c 0,0 -61.333339,0 -91.999999,0 0,-38.666669 0,-77.333335 0,-116 z" />
  <path
     id="rect3137-6-5-5"
     d="m 40,15.999996 0,8 8,0 0,-8 -8,0 z m 8,8 0,8 8,0 0,-8 -8,0 z m 8,0 8,0 0,-8 -8,0 0,8 z m 8,0 0,8 8,0 0,-8 -8,0 z m 8,0 8,0 0,-8 -8,0 0,8 z m 8,0 0,8 8,0 0,-8 -8,0 z m 8,0 8,0 0,-8 -8,0 0,8 z m 0,8 0,8 8,0 0,-8 -8,0 z m 0,8 -8,0 0,8 8,0 0,-8 z m 0,8 0,8 8,0 0,-8 -8,0 z m 0,8 -8,0 0,8 8,0 0,-8 z m 0,8 0,8 8,0 0,-8 -8,0 z m 0,8 -8,0 0,8 8,0 0,-8 z m 0,8 0,8 8,0 0,-8 -8,0 z m 0,8 -8,0 0,8 8,0 0,-8 z m 0,8 0,8.000004 8,0 0,-8.000004 -8,0 z m -8,0 -8,0 0,8.000004 8,0 0,-8.000004 z m -8,0 0,-8 -8,0 0,8 8,0 z m -8,0 -8,0 0,8.000004 8,0 0,-8.000004 z m -8,0 0,-8 -8,0 0,8 8,0 z m -8,0 -8,0 0,8.000004 8,0 0,-8.000004 z m -8,0 0,-8 -8,0 0,8 8,0 z m 0,-8 8,0 0,-8 -8,0 0,8 z m 0,-8 0,-8 -8,0 0,8 8,0 z m 0,-8 8,0 0,-8 -8,0 0,8 z m 0,-8 0,-8 -8,0 0,8 8,0 z m 0,-8 8,0 0,-8 -8,0 0,8 z m 0,-8 0,-8 -8,0 0,8 8,0 z m 0,-8 8,0 0,-8 -8,0 0,8 z m 0,-8 0,-8 -8,0 0,8 8,0 z m 8,8 0,8 8,0 0,-8 -8,0 z m 8,0 8,0 0,-8 -8,0 0,8 z m 8,0 0,8 8,0 0,-8 -8,0 z m 8,0 8,0 0,-8 -8,0 0,8 z m 0,8 0,8 8,0 0,-8 -8,0 z m 0,8 -8,0 0,8 8,0 0,-8 z m 0,8 0,8 8,0 0,-8 -8,0 z m 0,8 -8,0 0,8 8,0 0,-8 z m 0,8 0,8 8,0 0,-8 -8,0 z m -8,0 -8,0 0,8 8,0 0,-8 z m -8,0 0,-8 -8,0 0,8 8,0 z m 0,-8 8,0 0,-8 -8,0 0,8 z m 0,-8 0,-8 -8,0 0,8 8,0 z m 0,-8 8,0 0,-8 -8,0 0,8 z"
     style="color:#000000;display:inline;overflow:visible;visibility:visible;opacity:0.4;fill:#d4d4d4;fill-opacity:1;fill-rule:nonzero;stroke:none;stroke-width:0.98542744;marker:none;enable-background:accumulate" />
  <path
     style="fill:none;stroke:url(#linearGradient3148);stroke-width:0.99999994;stroke-linecap:butt;stroke-linejoin:round;stroke-miterlimit:4;stroke-opacity:1;stroke-dasharray:none;stroke-dashoffset:0;display:inline"
     id="path4160-6-1"
     d="m 17.500001,1.499985 c 21.311001,0 92.999899,0.008 92.999899,0.008 l 1e-4,116.992025 c 0,0 -61.999997,0 -92.999999,0 0,-39.000101 0,-77.999812 0,-116.999461 z" />
  <path
     style="opacity:1;fill:#7e8087;fill-opacity:1;fill-rule:evenodd;stroke:none"
     d="M 64,33 C 49.096,33 37,45.096 37,60 37,74.904 49.096,87 64,87 78.904,87 91,74.904 91,60 91,45.096 78.904,33 64,33 Z m 0,3.857143 c 12.774857,0 23.142857,10.368 23.142857,23.142857 0,12.774857 -10.368,23.142857 -23.142857,23.142857 -12.774857,0 -23.142857,-10.368 -23.142857,-23.142857 0,-12.774857 10.368,-23.142857 23.142857,-23.142857 z m -0.768415,6.220145 -2.583985,18.095424 12.924944,10.338449 0,-2.583985 -7.754464,-10.340959 0,-15.508929 -2.586495,0 z"
     id="path2839-2-4" />
</svg>
