<?xml version="1.0" encoding="UTF-8" standalone="no"?>
<svg
   xmlns:dc="http://purl.org/dc/elements/1.1/"
   xmlns:cc="http://creativecommons.org/ns#"
   xmlns:rdf="http://www.w3.org/1999/02/22-rdf-syntax-ns#"
   xmlns:svg="http://www.w3.org/2000/svg"
   xmlns="http://www.w3.org/2000/svg"
   xmlns:xlink="http://www.w3.org/1999/xlink"
   id="svg2"
   width="128"
   viewBox="0 0 128 128"
   version="1"
   height="128">
  <metadata
     id="metadata101">
    <rdf:RDF>
      <cc:Work
         rdf:about="">
        <dc:format>image/svg+xml</dc:format>
        <dc:type
           rdf:resource="http://purl.org/dc/dcmitype/StillImage" />
      </cc:Work>
    </rdf:RDF>
  </metadata>
  <title
     id="title4">
        elementary Icon Template
    </title>
  <defs
     id="defs6">
    <linearGradient
       id="f">
      <stop
         id="stop9"
         stop-color="#997543"
         offset="0" />
      <stop
         id="stop11"
         stop-color="#715d43"
         offset=".239" />
      <stop
         id="stop13"
         stop-color="#7b6241"
         offset=".276" />
      <stop
         id="stop15"
         stop-color="#604c31"
         offset="1" />
    </linearGradient>
    <linearGradient
       y2="43"
       y1="5.564"
       x2="24"
       x1="24"
       id="o"
       xlink:href="#b"
       gradientUnits="userSpaceOnUse"
       gradientTransform="matrix(2.94595,0,0,1.91892,-6.703,35.946)" />
    <linearGradient
       id="b">
      <stop
         id="stop34"
         stop-color="#fff"
         offset="0" />
      <stop
         id="stop36"
         stop-opacity=".235"
         stop-color="#fff"
         offset=".036" />
      <stop
         id="stop38"
         stop-opacity=".157"
         stop-color="#fff"
         offset=".951" />
      <stop
         id="stop40"
         stop-opacity=".392"
         stop-color="#fff"
         offset="1" />
    </linearGradient>
    <linearGradient
       y2="8"
       y1="22"
       x2="26"
       x1="26"
       id="n"
       xlink:href="#c"
       gradientUnits="userSpaceOnUse"
       gradientTransform="matrix(3,0,0,2.71429,-8,-0.714)" />
    <linearGradient
       id="c">
      <stop
         id="stop44"
         stop-color="#fff"
         offset="0" />
      <stop
         id="stop46"
         stop-color="#fff"
         offset=".302" />
      <stop
         id="stop48"
         stop-opacity=".643"
         stop-color="#fff"
         offset=".344" />
      <stop
         id="stop50"
         stop-opacity=".391"
         stop-color="#fff"
         offset="1" />
    </linearGradient>
    <linearGradient
       y2="23.5"
       y1="47.5"
       x2="63.5"
       x1="63.5"
       id="m"
       xlink:href="#d"
       gradientUnits="userSpaceOnUse"
       gradientTransform="translate(0,-1)" />
    <linearGradient
       id="d">
      <stop
         id="stop54"
         stop-color="#ad8757"
         offset="0" />
      <stop
         id="stop56"
         stop-opacity=".392"
         stop-color="#c7ad88"
         offset="1" />
    </linearGradient>
    <linearGradient
       y2="45.042"
       y1="7.976"
       x2="15.464"
       x1="15.464"
       id="q"
       xlink:href="#f"
       gradientUnits="userSpaceOnUse"
       gradientTransform="matrix(2.70707,0,0,2.6646,-0.97,-0.08)" />
  </defs>
  <path
     d="m 23.423,22.57 79.852,0 c 4.662,0 6.76,-0.764 8.099,2.664 l 8.126,21.317 0,68.41 c 0,4.14 0.278,3.507 -4.383,3.507 l -102.234,0 c -4.661,0 -4.383,0.633 -4.383,-3.506 l 0,-68.412 8.126,-21.317 c 1.302,-3.359 2.135,-2.664 6.797,-2.664 z"
     display="block"
     overflow="visible"
     style="color:#000000;display:block;overflow:visible;fill:#cead6d;marker:none;fill-opacity:1"
     id="path87" />
  <path
     d="m 63.5,23 0,23"
     id="path89"
     style="opacity:0.4;fill:none;stroke:url(#m)" />
  <path
     d="m 58,21 12,0 0,38 C 68.819,59 67.638,56.907 66.456,56.907 65.247,56.907 64.038,59 62.828,59 61.855,59 60.881,57.169 59.908,57.169 59.272,57.169 58.636,59 58,59 l 0,-38 z"
     overflow="visible"
     style="overflow:visible;opacity:0.3;fill:url(#n);marker:none"
     id="path91" />
  <path
     d="m 118.5,117.5 -109,0 0,-71 109,0 z"
     id="path93"
     style="opacity:0.3;fill:none;stroke:url(#o);stroke-linecap:round;stroke-linejoin:round" />
  <path
     d="m 23.423,22.57 79.852,0 c 4.662,0 6.76,-0.764 8.099,2.664 l 8.126,21.317 0,68.41 c 0,4.14 0.278,3.507 -4.383,3.507 l -102.234,0 c -4.661,0 -4.383,0.633 -4.383,-3.506 l 0,-68.412 8.126,-21.317 c 1.302,-3.359 2.135,-2.664 6.797,-2.664 z"
     display="block"
     overflow="visible"
     style="color:#000000;display:block;overflow:visible;opacity:0.5;fill:none;stroke:url(#q);stroke-width:0.99400002;stroke-linecap:round;marker:none"
     id="path97" />
</svg>
