<?xml version="1.0" encoding="UTF-8" standalone="no"?>
<svg
   xmlns:dc="http://purl.org/dc/elements/1.1/"
   xmlns:cc="http://creativecommons.org/ns#"
   xmlns:rdf="http://www.w3.org/1999/02/22-rdf-syntax-ns#"
   xmlns:svg="http://www.w3.org/2000/svg"
   xmlns="http://www.w3.org/2000/svg"
   xmlns:xlink="http://www.w3.org/1999/xlink"
   version="1.1"
   id="svg3172"
   height="128"
   width="128">
  <defs
     id="defs3174">
    <linearGradient
       y2="2.9062471"
       x2="-51.786404"
       y1="50.786446"
       x1="-51.786404"
       gradientTransform="matrix(2.1456328,0,0,2.3791386,158.08997,-7.746077)"
       gradientUnits="userSpaceOnUse"
       id="linearGradient3098"
       xlink:href="#linearGradient3104" />
    <linearGradient
       id="linearGradient3104">
      <stop
         id="stop3106"
         style="stop-color:#a0a0a0;stop-opacity:1;"
         offset="0" />
      <stop
         id="stop3108-4"
         style="stop-color:#bebebe;stop-opacity:1;"
         offset="1" />
    </linearGradient>
  </defs>
  <metadata
     id="metadata3177">
    <rdf:RDF>
      <cc:Work
         rdf:about="">
        <dc:format>image/svg+xml</dc:format>
        <dc:type
           rdf:resource="http://purl.org/dc/dcmitype/StillImage" />
        <dc:title />
      </cc:Work>
    </rdf:RDF>
  </metadata>
  <path
     style="display:inline;fill:#fafafa;fill-opacity:1;stroke:url(#linearGradient3098);stroke-width:0.99992186;stroke-linecap:butt;stroke-linejoin:round;stroke-miterlimit:4;stroke-dasharray:none;stroke-dashoffset:0;stroke-opacity:1"
     id="path4160"
     d="m 17.499929,1.500412 c 21.311061,0 93.000031,0.007 93.000031,0.007 l 1.1e-4,116.992628 c 0,0 -62.0001,0 -93.00014,0 0,-39.000029 0,-78.000054 0,-117.000079 z" />
  <path
     d="M 66.3899,77.429181 C 66.216438,71.237594 67.603633,65.226606 73.453432,60.968843 79.632314,56.153793 85.583073,50.129194 84.954203,43.027742 84.816888,36.178763 76.83707,30.812095 68.239394,30.040568 58.568405,28.700834 46.86657,32.013741 43.625885,39.566404 c -1.6436,3.67336 -0.119437,10.263698 5.396462,10.263698 3.226261,0 4.708103,-2.083922 4.951543,-3.990433 0.184195,-1.442411 -0.408015,-2.730512 -0.757749,-3.922039 -0.398499,-1.357768 1.302667,-3.989055 3.155472,-5.061079 1.548231,-0.895676 3.168075,-1.196186 3.406849,-1.25349 5.56013,-1.336309 11.10278,1.615347 13.415271,5.207908 2.312494,3.592365 -0.232865,9.041209 -3.892495,14.340441 -3.659635,5.299035 -7.587076,11.317346 -7.571387,17.71014 0,2.433769 -0.216851,3.260381 -0.06276,4.24515 0.123087,0.786713 2.727969,0.691425 4.72282,0.322481 z m -2.53747,8.333981 c -5.316364,-0.28875 -8.996026,5.738382 -5.802216,9.5781 2.852221,4.239638 10.849193,3.19305 12.219871,-1.607812 1.425012,-3.733538 -2.004296,-8.032631 -6.417652,-7.970288 l -3e-6,0 z"
     id="path9053"
     style="font-style:normal;font-weight:bold;font-size:72px;font-family:'Standard Symbols L';opacity:1;fill:#7e8087;fill-opacity:1;stroke:none" />
</svg>
