<?xml version="1.0" encoding="UTF-8" standalone="no"?>
<svg
   xmlns:dc="http://purl.org/dc/elements/1.1/"
   xmlns:cc="http://creativecommons.org/ns#"
   xmlns:rdf="http://www.w3.org/1999/02/22-rdf-syntax-ns#"
   xmlns:svg="http://www.w3.org/2000/svg"
   xmlns="http://www.w3.org/2000/svg"
   xmlns:xlink="http://www.w3.org/1999/xlink"
   version="1.0"
   width="128"
   height="128"
   id="svg2453">
  <metadata
     id="metadata35">
    <rdf:RDF>
      <cc:Work
         rdf:about="">
        <dc:format>image/svg+xml</dc:format>
        <dc:type
           rdf:resource="http://purl.org/dc/dcmitype/StillImage" />
        <dc:title />
      </cc:Work>
    </rdf:RDF>
  </metadata>
  <defs
     id="defs2455">
    <linearGradient
       id="linearGradient3104-6">
      <stop
         id="stop3106-3"
         style="stop-color:#000000;stop-opacity:0.31782946"
         offset="0" />
      <stop
         id="stop3108-9"
         style="stop-color:#000000;stop-opacity:0.24031007"
         offset="1" />
    </linearGradient>
    <linearGradient
       id="linearGradient3600-9">
      <stop
         id="stop3602-3"
         style="stop-color:#505050;stop-opacity:1"
         offset="0" />
      <stop
         id="stop3604-7"
         style="stop-color:#2b2b2b;stop-opacity:1"
         offset="1" />
    </linearGradient>
    <linearGradient
       x1="-51.786404"
       y1="50.786446"
       x2="-51.786404"
       y2="2.9062471"
       id="linearGradient3163"
       xlink:href="#linearGradient3104-6"
       gradientUnits="userSpaceOnUse"
       gradientTransform="matrix(2.6993422,0,0,1.8911044,182.37115,16.150211)" />
    <linearGradient
       x1="25.132275"
       y1="0.98520643"
       x2="25.132275"
       y2="47.013336"
       id="linearGradient3169"
       xlink:href="#linearGradient3600-9"
       gradientUnits="userSpaceOnUse"
       gradientTransform="matrix(3.3142782,0,0,1.9989954,-15.542692,18.957175)" />
    <linearGradient
       id="linearGradient3242-59-5">
      <stop
         id="stop3244-9-4"
         style="stop-color:#f8b17e;stop-opacity:1"
         offset="0" />
      <stop
         id="stop3246-7-4"
         style="stop-color:#e35d4f;stop-opacity:1"
         offset="0.26238" />
      <stop
         id="stop3248-87-0"
         style="stop-color:#c6262e;stop-opacity:1"
         offset="0.66093999" />
      <stop
         id="stop3250-2-0"
         style="stop-color:#690b54;stop-opacity:1"
         offset="1" />
    </linearGradient>
    <linearGradient
       x1="229.00999"
       y1="600.00897"
       x2="229.00999"
       y2="635.00897"
       id="linearGradient3243"
       xlink:href="#linearGradient3242-59-5"
       gradientUnits="userSpaceOnUse"
       gradientTransform="matrix(-1,0,0,-1,456.02,1228.029)" />
  </defs>
  <path
     d="m 5.9999856,24.000032 c 26.5814884,0 115.9998644,0.0064 115.9998644,0.0064 l 1.4e-4,91.993658 c 0,0 -77.333336,0 -116.0000044,0 0,-30.6667 0,-61.332924 0,-91.999494 z"
     id="path4160-6"
     style="display:inline;fill:url(#linearGradient3169);fill-opacity:1;stroke:none" />
  <path
     d="m 5.4999611,23.499962 c 26.8106309,0 116.9999489,0.0063 116.9999489,0.0063 l 1.3e-4,92.993748 c 0,0 -78.000053,0 -117.0000791,0 0,-31.000113 0,-61.99991 0,-92.999659 z"
     id="path4160-6-1"
     style="display:inline;fill:none;stroke:url(#linearGradient3163);stroke-width:0.99992186;stroke-linecap:butt;stroke-linejoin:round;stroke-miterlimit:4;stroke-dasharray:none;stroke-dashoffset:0;stroke-opacity:1" />
  <g
     transform="matrix(2.711458,0,0,-2.71642,-554.23954,1739.9212)"
     id="layer12-33"
     style="color:#000000;display:inline;overflow:visible;visibility:visible;opacity:0.3;fill:#000000;fill-opacity:1;fill-rule:nonzero;stroke:none;stroke-width:1.0024693;marker:none;enable-background:accumulate" />
  <g
     transform="matrix(2.711458,0,0,-2.71642,-554.23954,1738.9212)"
     id="layer12"
     style="color:#000000;display:inline;overflow:visible;visibility:visible;fill:url(#linearGradient3243);fill-opacity:1;fill-rule:nonzero;stroke:none;marker:none;enable-background:accumulate" />
  <path
     id="path4194-3"
     d="m 51.499993,56.000002 c -0.831,0 -1.5,0.669 -1.5,1.5 V 84.5 c 0,0.831 0.669,1.5 1.5,1.5 h 24.99999 c 0.831,0 1.5,-0.669 1.5,-1.5 V 57.500003 c 0,-0.831 -0.669,-1.5 -1.5,-1.5 z m 0.5,2 h 2 v 2 h -2 z m 5,0 h 13.99999 c 0.55402,0 1,0.446 1,1 v 10 c 0,0.554 -0.44598,1 -1,1 h -13.99999 c -0.554,0 -1,-0.446 -1,-1 v -10 c 0,-0.554 0.446,-1 1,-1 z m 16.99999,0 h 2 v 2 h -2 z m -21.99999,4 h 2 v 2 h -2 z m 21.99999,0 h 2 v 2 h -2 z m -21.99999,4 h 2 v 2 h -2 z m 21.99999,0 h 2 v 2 h -2 z m -21.99999,4 h 2 v 2 h -2 z m 21.99999,0 h 2 v 2 h -2 z m -16.99999,2 h 13.99999 c 0.55402,0 1,0.445999 1,0.999999 v 10 c 0,0.553999 -0.44598,0.999999 -1,0.999999 h -13.99999 c -0.554,0 -1,-0.446 -1,-0.999999 v -10 c 0,-0.553999 0.446,-0.999999 1,-0.999999 z m -5,1.999999 h 2 v 2 h -2 z m 21.99999,0 h 2 v 2 h -2 z m -21.99999,4 h 2 v 2 h -2 z m 21.99999,0 h 2 v 2 h -2 z m -21.99999,4 h 2 V 84 h -2 z m 21.99999,0 h 2 V 84 h -2 z"
     style="opacity:0.2;fill:#000000;fill-opacity:1;stroke:none;stroke-width:2;stroke-miterlimit:4;stroke-dasharray:none;stroke-opacity:1" />
  <path
     id="path4194"
     d="m 51.499993,55.000062 c -0.831,0 -1.5,0.669 -1.5,1.5 V 83.50006 c 0,0.831 0.669,1.5 1.5,1.5 h 24.99999 c 0.831,0 1.5,-0.669 1.5,-1.5 V 56.500063 c 0,-0.831 -0.669,-1.5 -1.5,-1.5 z m 0.5,2 h 2 v 2 h -2 z m 5,0 h 13.99999 c 0.55402,0 1,0.446 1,1 v 10 c 0,0.554 -0.44598,1 -1,1 h -13.99999 c -0.554,0 -1,-0.446 -1,-1 v -10 c 0,-0.554 0.446,-1 1,-1 z m 16.99999,0 h 2 v 2 h -2 z m -21.99999,4 h 2 v 2 h -2 z m 21.99999,0 h 2 v 2 h -2 z m -21.99999,4 h 2 v 2 h -2 z m 21.99999,0 h 2 v 2 h -2 z m -21.99999,4 h 2 v 2 h -2 z m 21.99999,0 h 2 v 2 h -2 z m -16.99999,2 h 13.99999 c 0.55402,0 1,0.445999 1,0.999999 v 10 c 0,0.553999 -0.44598,0.999999 -1,0.999999 h -13.99999 c -0.554,0 -1,-0.446 -1,-0.999999 v -10 c 0,-0.553999 0.446,-0.999999 1,-0.999999 z m -5,1.999999 h 2 v 2 h -2 z m 21.99999,0 h 2 v 2 h -2 z m -21.99999,4 h 2 v 2 h -2 z m 21.99999,0 h 2 v 2 h -2 z m -21.99999,4 h 2 v 1.999999 h -2 z m 21.99999,0 h 2 v 1.999999 h -2 z"
     style="opacity:1;fill:#ffffff;fill-opacity:1;stroke:none;stroke-width:2;stroke-miterlimit:4;stroke-dasharray:none;stroke-opacity:1" />
</svg>
