<?xml version="1.0" encoding="UTF-8" standalone="no"?>
<svg
   xmlns:dc="http://purl.org/dc/elements/1.1/"
   xmlns:cc="http://creativecommons.org/ns#"
   xmlns:rdf="http://www.w3.org/1999/02/22-rdf-syntax-ns#"
   xmlns:svg="http://www.w3.org/2000/svg"
   xmlns="http://www.w3.org/2000/svg"
   xmlns:xlink="http://www.w3.org/1999/xlink"
   id="svg4954"
   height="128"
   width="128"
   version="1.1">
  <defs
     id="defs4956">
    <linearGradient
       id="linearGradient3104-9-7-3-9-2-6-2">
      <stop
         offset="0"
         style="stop-color:#aaaaaa;stop-opacity:1"
         id="stop3106-1-5-9-3-1-7-1" />
      <stop
         offset="1"
         style="stop-color:#c8c8c8;stop-opacity:1"
         id="stop3108-1-5-5-7-2-4-5" />
    </linearGradient>
    <linearGradient
       id="linearGradient3104-9-7-3-9-6">
      <stop
         offset="0"
         style="stop-color:#aaaaaa;stop-opacity:1"
         id="stop3106-1-5-9-3-2" />
      <stop
         offset="1"
         style="stop-color:#c8c8c8;stop-opacity:1"
         id="stop3108-1-5-5-7-4" />
    </linearGradient>
    <linearGradient
       id="linearGradient3104-5">
      <stop
         offset="0"
         style="stop-color:#aaaaaa;stop-opacity:1"
         id="stop3106-9" />
      <stop
         offset="1"
         style="stop-color:#c8c8c8;stop-opacity:1"
         id="stop3108-9" />
    </linearGradient>
    <linearGradient
       gradientTransform="matrix(2.6788351,0,0,-3.9652608,-8.7086648,228.72585)"
       gradientUnits="userSpaceOnUse"
       xlink:href="#linearGradient3104-5"
       id="linearGradient3091"
       y2="25.646791"
       x2="22.004084"
       y1="63.217903"
       x1="22.004084" />
    <linearGradient
       y2="11.941198"
       x2="-51.833466"
       y1="41.012497"
       x1="-51.833466"
       gradientTransform="matrix(3.2830096,0,0,2.0982895,222.16977,5.9439081)"
       gradientUnits="userSpaceOnUse"
       id="linearGradient3933"
       xlink:href="#linearGradient3104-9-7-3-9-6" />
    <linearGradient
       y2="14.685826"
       x2="-51.816425"
       y1="38.70771"
       x1="-51.816425"
       gradientTransform="matrix(4.3358848,0,0,0.28748705,272.67005,20.778015)"
       gradientUnits="userSpaceOnUse"
       id="linearGradient3941"
       xlink:href="#linearGradient3104-9-7-3-9-2-6-2" />
    <linearGradient
       y2="25.646791"
       x2="22.004084"
       y1="63.217903"
       x1="22.004084"
       gradientTransform="matrix(2.6788351,0,0,-3.9652608,-8.7086648,260.72585)"
       gradientUnits="userSpaceOnUse"
       id="linearGradient3968"
       xlink:href="#linearGradient3104-5" />
    <linearGradient
       y2="25.646791"
       x2="22.004084"
       y1="63.217903"
       x1="22.004084"
       gradientTransform="matrix(2.6788351,0,0,-3.9652608,13.603836,228.72585)"
       gradientUnits="userSpaceOnUse"
       id="linearGradient4180"
       xlink:href="#linearGradient3104-5" />
    <linearGradient
       y2="25.646791"
       x2="22.004084"
       y1="63.217903"
       x1="22.004084"
       gradientTransform="matrix(2.6788351,0,0,3.9652608,15.228836,-60.725859)"
       gradientUnits="userSpaceOnUse"
       id="linearGradient4185"
       xlink:href="#linearGradient3104-5" />
    <linearGradient
       id="linearGradient2867-449-88-871-390-598-476-591-434-148-57-177-8-3-3-6-4-8-8-8">
      <stop
         id="stop3750-1-0-7-6-6-1-3-9"
         style="stop-color:#ffcd7d;stop-opacity:1"
         offset="0" />
      <stop
         id="stop3752-3-7-4-0-32-8-923-0"
         style="stop-color:#fc8f36;stop-opacity:1"
         offset="0.26238" />
      <stop
         id="stop3754-1-8-5-2-7-6-7-1"
         style="stop-color:#e23a0e;stop-opacity:1"
         offset="0.704952" />
      <stop
         id="stop3756-1-6-2-6-6-1-96-6"
         style="stop-color:#ac441f;stop-opacity:1"
         offset="1" />
    </linearGradient>
    <radialGradient
       xlink:href="#linearGradient2867-449-88-871-390-598-476-591-434-148-57-177-8-3-3-6-4-8-8-8-2-8"
       id="radialGradient4173-5"
       gradientUnits="userSpaceOnUse"
       gradientTransform="matrix(0,20.456265,-25.113759,0,302.02937,-150.84671)"
       cx="6.7304144"
       cy="9.9571075"
       fx="6.2001843"
       fy="9.9571075"
       r="12.671875" />
    <linearGradient
       id="linearGradient2867-449-88-871-390-598-476-591-434-148-57-177-8-3-3-6-4-8-8-8-2-8">
      <stop
         id="stop3750-1-0-7-6-6-1-3-9-9-0"
         style="stop-color:#ffcd7d;stop-opacity:1"
         offset="0" />
      <stop
         id="stop3752-3-7-4-0-32-8-923-0-7-8"
         style="stop-color:#fc8f36;stop-opacity:1"
         offset="0.26238" />
      <stop
         id="stop3754-1-8-5-2-7-6-7-1-8-0"
         style="stop-color:#e23a0e;stop-opacity:1"
         offset="0.704952" />
      <stop
         id="stop3756-1-6-2-6-6-1-96-6-1-1"
         style="stop-color:#ac441f;stop-opacity:1"
         offset="1" />
    </linearGradient>
    <linearGradient
       id="linearGradient3104-6-6-1">
      <stop
         id="stop3106-3-2"
         style="stop-color:#000000;stop-opacity:0.31782946"
         offset="0" />
      <stop
         id="stop3108-9-8-3"
         style="stop-color:#000000;stop-opacity:0.24031007"
         offset="1" />
    </linearGradient>
    <linearGradient
       xlink:href="#linearGradient3104-6-6-1"
       id="linearGradient4420"
       gradientUnits="userSpaceOnUse"
       gradientTransform="matrix(2.6301305,0,0,1.6674276,179.33609,30.019469)"
       x1="-51.786404"
       y1="50.786446"
       x2="-51.786404"
       y2="2.9062471" />
    <radialGradient
       gradientTransform="matrix(0,20.070195,-24.639785,0,309.31217,-176.62513)"
       gradientUnits="userSpaceOnUse"
       xlink:href="#linearGradient2867-449-88-871-390-598-476-591-434-148-57-177-8-3-3-6-4-8-8-8"
       id="radialGradient3029"
       fy="9.9571075"
       fx="6.0330806"
       r="12.671875"
       cy="9.9571075"
       cx="6.5633106" />
    <radialGradient
       r="12.671875"
       fy="9.9571075"
       fx="6.0330806"
       cy="9.9571075"
       cx="6.5633106"
       gradientTransform="matrix(0,20.070195,-24.639785,0,309.31217,-176.63209)"
       gradientUnits="userSpaceOnUse"
       id="radialGradient4341"
       xlink:href="#linearGradient2867-449-88-871-390-598-476-591-434-148-57-177-8-3-3-6-4-8-8-8" />
    <radialGradient
       r="12.671875"
       fy="9.9571075"
       fx="6.0330806"
       cy="9.9571075"
       cx="6.5633106"
       gradientTransform="matrix(0,20.070195,-24.639785,0,309.31217,-176.6342)"
       gradientUnits="userSpaceOnUse"
       id="radialGradient4343"
       xlink:href="#linearGradient2867-449-88-871-390-598-476-591-434-148-57-177-8-3-3-6-4-8-8-8" />
  </defs>
  <metadata
     id="metadata4959">
    <rdf:RDF>
      <cc:Work
         rdf:about="">
        <dc:format>image/svg+xml</dc:format>
        <dc:type
           rdf:resource="http://purl.org/dc/dcmitype/StillImage" />
        <dc:title />
      </cc:Work>
    </rdf:RDF>
  </metadata>
  <path
     d="m 28.5,24.499926 71,0 0,13.000074 -71,0 z"
     id="rect4964-4-4"
     style="color:#000000;display:inline;overflow:visible;visibility:visible;opacity:0.5;fill:#fafafa;fill-opacity:1;fill-rule:nonzero;stroke:url(#linearGradient3941);stroke-width:0.99992168;stroke-linecap:butt;stroke-linejoin:round;stroke-miterlimit:4;stroke-dashoffset:0;stroke-opacity:1;marker:none;enable-background:accumulate" />
  <path
     d="M 16.499961,30.499925 111.5,30.5 l 0,61.000084 -94.999961,0 z"
     id="rect4964-4"
     style="color:#000000;display:inline;overflow:visible;visibility:visible;opacity:0.75;fill:#fafafa;fill-opacity:1;fill-rule:nonzero;stroke:url(#linearGradient3933);stroke-width:0.99992186;stroke-linecap:butt;stroke-linejoin:round;stroke-miterlimit:4;stroke-dashoffset:0;stroke-opacity:1;marker:none;enable-background:accumulate" />
  <rect
     style="color:#000000;display:inline;overflow:visible;visibility:visible;fill:#fafafa;fill-opacity:1;fill-rule:nonzero;stroke:none;stroke-width:0.99992186;marker:none;enable-background:accumulate"
     id="rect4964"
     y="37"
     x="18"
     height="81"
     width="103" />
  <path
     style="color:#000000;font-style:normal;font-variant:normal;font-weight:normal;font-stretch:normal;font-size:medium;line-height:normal;font-family:Sans;-inkscape-font-specification:Sans;text-indent:0;text-align:start;text-decoration:none;text-decoration-line:none;letter-spacing:normal;word-spacing:normal;text-transform:none;direction:ltr;block-progression:tb;writing-mode:lr-tb;baseline-shift:baseline;text-anchor:start;display:inline;overflow:visible;visibility:visible;fill:url(#linearGradient3091);fill-opacity:1;stroke:none;stroke-width:0.99999994px;marker:none;enable-background:accumulate"
     id="path3475-4"
     d="m 27.999999,88.999999 0,-2 4.000001,0 0,2 z m 5.000001,0 0,-2 12.999998,0 0,2 z m -5.000001,-8 0,-1.999999 L 34,79 34,80.999999 Z M 35,80.999999 35,79 l 5,0 0,1.999999 z m 6,0 L 41,79 l 3,0 0,1.999999 z m 4,0 L 45,79 l 4,0 0,1.999999 z M 27.999999,73 l 0,-2 L 35,71 35,73 Z M 36,73 l 0,-2 3,0 0,2 z m 4,0 0,-2 8,0 0,2 z m -12.000001,-8 0,-2 L 35,63 35,65 Z M 36,65 l 0,-2 5,0 0,2 z m 6,0 0,-2 7,0 0,2 z" />
  <path
     d="m 18,118.5 -11.5,0 c 0,-28 0.026032,-57.676631 0,-82 l 11.5,-3e-6"
     id="path4530"
     style="color:#000000;display:inline;overflow:visible;visibility:visible;fill:url(#radialGradient4173-5);fill-opacity:1;fill-rule:nonzero;stroke:none;stroke-width:0.99999994;marker:none;enable-background:accumulate" />
  <path
     d="m 73.999999,47 0,2 2.000001,-2e-6 0,-2 z m 3.000001,-2e-6 0,2 5,0 0,-2 z m 6.999998,0 0,2 6,2e-6 0,-2 z m -39.999998,0 0,2 12,0 0,-2 z m 13,0 0,2 6,0 0,-2 z m 6.999999,0 0,2 8.000001,0 0,-2 z"
     style="color:#000000;font-style:normal;font-variant:normal;font-weight:normal;font-stretch:normal;font-size:medium;line-height:normal;font-family:Sans;-inkscape-font-specification:Sans;text-indent:0;text-align:start;text-decoration:none;text-decoration-line:none;letter-spacing:normal;word-spacing:normal;text-transform:none;direction:ltr;block-progression:tb;writing-mode:lr-tb;baseline-shift:baseline;text-anchor:start;display:inline;overflow:visible;visibility:visible;opacity:0.28000004;fill:#000000;fill-opacity:1;stroke:none;stroke-width:1px;marker:none;enable-background:accumulate"
     id="path3925" />
  <path
     d="m 27.999999,105 0,-2 7.000001,0 0,2 z M 36,105 l 0,-2 3,0 0,2 z m 4,0 0,-2 7,0 0,2 z m -12.000001,-8.000001 0,-2 6.000001,0 0,2 z m 7.000001,0 0,-2 5,0 0,2 z m 6,0 0,-2 8,0 0,2 z"
     id="path3966"
     style="color:#000000;font-style:normal;font-variant:normal;font-weight:normal;font-stretch:normal;font-size:medium;line-height:normal;font-family:Sans;-inkscape-font-specification:Sans;text-indent:0;text-align:start;text-decoration:none;text-decoration-line:none;letter-spacing:normal;word-spacing:normal;text-transform:none;direction:ltr;block-progression:tb;writing-mode:lr-tb;baseline-shift:baseline;text-anchor:start;display:inline;overflow:visible;visibility:visible;fill:url(#linearGradient3968);fill-opacity:1;stroke:none;stroke-width:0.99999994px;marker:none;enable-background:accumulate" />
  <path
     d="m 50,89.000001 0,-2 5,0 0,2 z m 0,-8 0,-2 6,0 0,2 z m -1,-7.999999 0,-2 5,0 0,2 z m 2,-8 0,-2 5,0 0,2 z"
     id="path4178"
     style="color:#000000;font-style:normal;font-variant:normal;font-weight:normal;font-stretch:normal;font-size:medium;line-height:normal;font-family:Sans;-inkscape-font-specification:Sans;text-indent:0;text-align:start;text-decoration:none;text-decoration-line:none;letter-spacing:normal;word-spacing:normal;text-transform:none;direction:ltr;block-progression:tb;writing-mode:lr-tb;baseline-shift:baseline;text-anchor:start;display:inline;overflow:visible;visibility:visible;fill:url(#linearGradient4180);fill-opacity:1;stroke:none;stroke-width:0.99999994px;marker:none;enable-background:accumulate" />
  <path
     style="color:#000000;font-style:normal;font-variant:normal;font-weight:normal;font-stretch:normal;font-size:medium;line-height:normal;font-family:Sans;-inkscape-font-specification:Sans;text-indent:0;text-align:start;text-decoration:none;text-decoration-line:none;letter-spacing:normal;word-spacing:normal;text-transform:none;direction:ltr;block-progression:tb;writing-mode:lr-tb;baseline-shift:baseline;text-anchor:start;display:inline;overflow:visible;visibility:visible;fill:url(#linearGradient4185);fill-opacity:1;stroke:none;stroke-width:0.99999994px;marker:none;enable-background:accumulate"
     id="path4183"
     d="m 50,95.000001 0,2 7,0 0,-2 z m 8,0 0,2 3,0 0,-2 z M 49,103 l 0,2 7,0 0,-2 z m 8,0 0,2 5,0 0,-2 z m 6,0 0,2 7,0 0,-2 z" />
  <path
     d="m 18,118.5 -11.5,0 c 0,-28.5 0.025903,-57.678098 0,-82 l 11.5,-3e-6"
     id="path4530-3"
     style="color:#000000;display:inline;overflow:visible;visibility:visible;opacity:0.4;fill:none;stroke:#640000;stroke-width:1.00000012;stroke-linecap:butt;stroke-linejoin:round;stroke-miterlimit:4;stroke-dasharray:none;stroke-dashoffset:0;stroke-opacity:1;marker:none;enable-background:accumulate" />
  <path
     id="path4160-6-1"
     d="m 18,118.5 103.5,0 0,-81.999997 -103.5,0"
     style="display:inline;fill:none;stroke:url(#linearGradient4420);stroke-width:0.9999218;stroke-linecap:butt;stroke-linejoin:round;stroke-miterlimit:4;stroke-dasharray:none;stroke-dashoffset:0;stroke-opacity:1" />
  <g
     transform="translate(0,8.9980004)"
     id="g4387">
    <path
       style="color:#000000;clip-rule:nonzero;display:inline;overflow:visible;visibility:visible;opacity:0.4;isolation:auto;mix-blend-mode:normal;color-interpolation:sRGB;color-interpolation-filters:linearRGB;solid-color:#000000;solid-opacity:1;fill:url(#radialGradient4341);fill-opacity:1;fill-rule:nonzero;stroke:none;stroke-width:0.99999994;stroke-linecap:butt;stroke-linejoin:miter;stroke-miterlimit:4;stroke-dasharray:none;stroke-dashoffset:0;stroke-opacity:1;marker:none;color-rendering:auto;image-rendering:auto;shape-rendering:auto;text-rendering:auto;enable-background:accumulate"
       id="path3035"
       d="M 110,73.999995 A 19.999999,19.999999 0 1 1 99.420234,56.357462 l -9.420236,17.642533 z" />
    <path
       d="M 110,73.997889 C 110,83 104,90.874324 95.33681,93.27249 86.68495,95.66752 77.5,92.035573 72.850413,84.282045 72.815033,84.314125 89.999998,73.997889 89.999998,73.997889 Z"
       id="path3964"
       style="color:#000000;clip-rule:nonzero;display:inline;overflow:visible;visibility:visible;opacity:0.4;isolation:auto;mix-blend-mode:normal;color-interpolation:sRGB;color-interpolation-filters:linearRGB;solid-color:#000000;solid-opacity:1;fill:url(#radialGradient4343);fill-opacity:1;fill-rule:nonzero;stroke:none;stroke-width:0.99999994;stroke-linecap:butt;stroke-linejoin:miter;stroke-miterlimit:4;stroke-dasharray:none;stroke-dashoffset:0;stroke-opacity:1;marker:none;color-rendering:auto;image-rendering:auto;shape-rendering:auto;text-rendering:auto;enable-background:accumulate" />
    <path
       d="m 110,74.006966 c 0,8.671378 -5.804,16.822178 -14.66319,19.274601 -0.19524,-0.0339 -5.336812,-19.274601 -5.336812,-19.274601 z"
       id="path3962"
       style="color:#000000;clip-rule:nonzero;display:inline;overflow:visible;visibility:visible;opacity:0.8;isolation:auto;mix-blend-mode:normal;color-interpolation:sRGB;color-interpolation-filters:linearRGB;solid-color:#000000;solid-opacity:1;fill:url(#radialGradient3029);fill-opacity:1;fill-rule:nonzero;stroke:none;stroke-width:0.99999994;stroke-linecap:butt;stroke-linejoin:miter;stroke-miterlimit:4;stroke-dasharray:none;stroke-dashoffset:0;stroke-opacity:1;marker:none;color-rendering:auto;image-rendering:auto;shape-rendering:auto;text-rendering:auto;enable-background:accumulate" />
  </g>
</svg>
