<?xml version="1.0" encoding="UTF-8" standalone="no"?>
<svg
   xmlns:dc="http://purl.org/dc/elements/1.1/"
   xmlns:cc="http://creativecommons.org/ns#"
   xmlns:rdf="http://www.w3.org/1999/02/22-rdf-syntax-ns#"
   xmlns:svg="http://www.w3.org/2000/svg"
   xmlns="http://www.w3.org/2000/svg"
   xmlns:xlink="http://www.w3.org/1999/xlink"
   version="1.1"
   width="128"
   height="128"
   id="svg3945">
  <defs
     id="defs3947">
    <linearGradient
       x1="22.004084"
       y1="47.813133"
       x2="22.004084"
       y2="3.3638515"
       id="linearGradient3878"
       xlink:href="#linearGradient3104-4"
       gradientUnits="userSpaceOnUse"
       gradientTransform="matrix(2.7042255,0,0,2.7149968,5.3934785,-10.300158)" />
    <linearGradient
       id="linearGradient3104-4">
      <stop
         id="stop3106-7"
         style="stop-color:#aaaaaa;stop-opacity:1"
         offset="0" />
      <stop
         id="stop3108-6"
         style="stop-color:#c8c8c8;stop-opacity:1"
         offset="1" />
    </linearGradient>
    <radialGradient
       cx="7.8060555"
       cy="9.9571075"
       r="12.671875"
       fx="7.2758255"
       fy="9.9571075"
       id="radialGradient3150"
       xlink:href="#linearGradient2867-449-88-871-390-598-476-591-434-148-57-177-8"
       gradientUnits="userSpaceOnUse"
       gradientTransform="matrix(-4.3144324e-7,17.558819,-21.594996,-5.2706847e-7,279.1828,-159.61717)" />
    <linearGradient
       id="linearGradient2867-449-88-871-390-598-476-591-434-148-57-177-8">
      <stop
         id="stop3750-1"
         style="stop-color:#90dbec;stop-opacity:1"
         offset="0" />
      <stop
         id="stop3752-3"
         style="stop-color:#55c1ec;stop-opacity:1"
         offset="0.26238" />
      <stop
         id="stop3754-1"
         style="stop-color:#3689e6;stop-opacity:1"
         offset="0.704952" />
      <stop
         id="stop3756-1"
         style="stop-color:#2b63a0;stop-opacity:1"
         offset="1" />
    </linearGradient>
  </defs>
  <metadata
     id="metadata3950">
    <rdf:RDF>
      <cc:Work
         rdf:about="">
        <dc:format>image/svg+xml</dc:format>
        <dc:type
           rdf:resource="http://purl.org/dc/dcmitype/StillImage" />
        <dc:title />
      </cc:Work>
    </rdf:RDF>
  </metadata>
  <path
     style="display:inline;fill:#fafafa;fill-opacity:1;stroke:none"
     id="path4160"
     d="m 17.499929,1.500412 c 21.311061,0 93.000031,0.007 93.000031,0.007 l 1.1e-4,116.992628 c 0,0 -62.0001,0 -93.00014,0 0,-39.000029 0,-78.000054 0,-117.000079 z" />
  <path
     style="color:#000000;display:inline;overflow:visible;visibility:visible;fill:url(#radialGradient3150);fill-opacity:1;fill-rule:nonzero;stroke:none;stroke-width:1;marker:none;enable-background:accumulate"
     id="path4530"
     d="m 32.095498,118.50004 c -4.681714,0 -9.307501,0 -13.989241,0 -0.365697,0 -0.543005,-0.10522 -0.543005,-0.62692 0,-36.743543 0,-78.957192 0,-115.700727 l 0.158703,-0.475811 0.384302,-0.19646 0,0 c 4.872721,0 8.925548,0 13.798245,0" />
  <path
     style="fill:none;stroke:url(#linearGradient3878);stroke-width:1px;stroke-linecap:butt;stroke-linejoin:miter;stroke-opacity:1"
     id="path3475"
     d="m 40.5,21.5 6.33803,0 z m 7.267607,0 5.915493,0 z m 6.845071,0 5.239436,0 z m 6.084507,0 2.28169,0 z m 3.211269,0 5.070422,0 z m 6.084506,0 13.352127,0 z m 14.197191,0 10.22536,0 z M 40.5,27.5 l 9.887327,0 z m 10.985917,0 4.732394,0 z m 5.577466,0 2.366197,0 z m 3.295774,0 4.309861,0 z m 5.239438,0 4.394365,0 z m 5.239436,0 7.014093,0 z m 7.943656,0 9.126779,0 z m 9.971844,0 6.084511,0 z m 6.929577,0 1.521133,0 z M 40.5,33.45758 l 8.3662,0 z m 9.211268,0 13.690143,0 z m 14.535214,0 6.676055,0 z m 7.521126,0 6.253514,0 z m 7.098599,0 5.323944,0 z m 6.16901,0 8.366192,0.08484 z M 40.5,39.5 l 11.577466,0 z m 12.507044,0 12.507043,0 z m 13.352112,0 4.985919,0 z m 5.830987,0 11.746494,0 z m 12.50704,0 8.028178,0 z m 8.95776,0 3.211265,0 z M 40.5,45.5 l 4.30986,0 z m 5.661973,0 15.971833,0 z M 40.5,56.45758 l 8.3662,0 z m 9.211268,0 13.690143,0 z m 14.535214,0 6.676055,0 z m 7.521126,0 6.253514,0 z m 7.098599,0 5.323944,0 z m 6.16901,0 8.366192,0.08484 z M 40.5,62.5 l 10.647889,0 z m 11.49296,0 11.408451,0 z m 12.253522,0 4.394366,0 z m 5.239438,0 10.732403,0 z m 11.577468,0 13.521119,0 z m 14.450702,0 4.98591,0 z m -55.01409,6 11.577466,0 z m 12.507044,0 12.507043,0 z m 13.352112,0 4.985919,0 z m 5.830987,0 11.746494,0 z m 12.50704,0 8.028178,0 z m 8.95776,0 3.211265,0 z M 40.5,74.5 l 9.887327,0 z m 10.985917,0 4.732394,0 z m 5.577466,0 2.366197,0 z m 3.295774,0 4.309861,0 z m 5.239438,0 4.394365,0 z m 5.239436,0 7.014093,0 z m 7.943656,0 9.126779,0 z m 9.971844,0 6.084511,0 z m 6.929577,0 1.521133,0 z M 40.5,85.457575 l 8.3662,0 z m 9.211268,0 13.690143,0 z m 14.535214,0 6.676055,0 z m 7.521126,0 6.253514,0 z m 7.098599,0 5.323944,0 z m 6.16901,0 8.366192,0.08485 z M 40.5,91.5 l 9.887327,0 z m 10.985917,0 4.732394,0 z m 5.577466,0 2.366197,0 z m 3.295774,0 4.309861,0 z m 5.239438,0 4.394365,0 z m 5.239436,0 7.014093,0 z m 7.943656,0 9.126779,0 z m 9.971844,0 6.084511,0 z m 6.929577,0 1.521133,0 z M 40.5,97.5 l 10.478874,0 z m 11.408451,0 3.295777,0 z m 4.140847,0 7.521126,0 z m 8.366197,0 11.070424,0 z m 12.000001,0 7.521141,0 z m 8.281687,0 1.605631,0 z m 2.450716,0 9.549291,0 z m -46.647899,6 10.478874,0 z m 11.408451,0 4.732396,0 z m 5.577467,0 7.43662,0 z m 8.281691,0 8.02817,0 z m 8.957747,0 3.211267,0 z m 4.056331,0 1.774649,0 z m 2.704233,0 4.985911,0 z" />
  <path
     style="display:inline;opacity:0.3;fill:none;stroke:#000000;stroke-width:0.99992186;stroke-linecap:butt;stroke-linejoin:round;stroke-miterlimit:4;stroke-dasharray:none;stroke-dashoffset:0;stroke-opacity:1"
     id="path4160-4"
     d="m 17.499929,1.500412 c 21.311061,0 93.000031,0.007 93.000031,0.007 l 1.1e-4,116.992628 c 0,0 -62.0001,0 -93.00014,0 0,-39.000029 0,-78.000054 0,-117.000079 z" />
</svg>
